<?xml version="1.0" encoding="utf-8"?>
<!-- Generator: Adobe Illustrator 21.0.0, SVG Export Plug-In . SVG Version: 6.00 Build 0)  -->
<svg version="1.1" id="_x2018_лой_x5F_1" xmlns="http://www.w3.org/2000/svg" xmlns:xlink="http://www.w3.org/1999/xlink"
	 x="0px" y="0px" viewBox="0 0 3000 2000" style="enable-background:new 0 0 3000 2000;" xml:space="preserve">
<style type="text/css">
	.st0{display:none;fill:#FFFFFF;}
	.st1{fill:#EBF3FA;}
	.st2{fill:#FFFFFF;}
	.st3{fill:#739AF0;}
	.st4{opacity:0.5;fill:#2B478B;enable-background:new    ;}
	.st5{fill:#17133C;}
	.st6{fill:#8C9DF4;}
	.st7{fill:#2B478B;}
	.st8{fill:#172A49;}
	.st9{fill:#F99746;}
	.st10{fill:#ED7F35;}
	.st11{fill:#233862;}
	.st12{opacity:0.7;fill:#FFFFFF;enable-background:new    ;}
	.st13{opacity:0.5;fill:#FFFFFF;enable-background:new    ;}
	.st14{fill:#F5FBFF;}
	.st15{fill:#A8D29F;}
	.st16{fill:#2A4A7C;}
	.st17{fill:#FFB27D;}
	.st18{fill:#EF7E29;}
	.st19{fill:#707FE5;}
	.st20{fill:#AEC3FF;}
	.st21{fill:#ED985F;}
	.st22{fill:#DDE7FE;}
</style>
<rect class="st0" width="3000" height="2000"/>
<g>
	<path class="st1" d="M2795.5,1643.8c-28.6,115.4-88.9,182.7-90,185.2c-31.3,0-149.6,0-317.9,0c-94,0-203.6,0-322.4,0
		c-707.8-0.1-1741.8-0.7-1742.7-3.4l-0.2-0.5c0,0-0.2-0.5-0.2-0.7c-0.9-2-343.4-562.3,189.1-952.4c208.4-152.6-13-253.4,152.6-423.3
		c125.6-128.8,258.8-78.7,395.6-55c70.6,12.2,142.3,17.4,214.3-12.8c37.4-15.6,74.9-40.8,112.5-79.4c21.2-21.7,44.3-40.7,69.2-57.1
		c77.4-51.2,169.3-76.1,261.1-83c236.6-17.7,502.8,81.8,640.2,227.1c27.7,29.3,153.5,180.7,54.3,388.9
		c-14.5,30.5-11.6,60.7,2.7,90.9c19.7,41.8,61.1,83.7,107.7,126.7c64.9,59.8,140.6,122.2,182.4,189.5
		C2791.1,1324.9,2835.4,1482.9,2795.5,1643.8z"/>
	<path class="st2" d="M1979.2,752.2c0,0,19.2-40.9,65.2-36.3c0,0,66.7-68.1,137.9-9.1c0,0,75.6-14.6,131.7,12.7
		c37.4,18.2,49.7,37.3,49.7,37.3L1979.2,752.2z"/>
	<path class="st2" d="M2370.3,1268.7c0,0,16-34,54.2-30.2c0,0,55.4-56.6,114.6-7.5c0,0,62.8-12.2,109.4,10.5
		c31,15.1,41.3,31,41.3,31L2370.3,1268.7z"/>
	<path class="st3" d="M1869.3,1829c-315.8-0.1-500.6-0.2-825.6-0.6c-167-0.2-319.3-0.5-440.4-0.8c-171.4-0.5-280.5-1.1-280.8-2
		l-0.2-0.5c0,0-0.2-0.5-0.2-0.7c-0.3-0.6-32.6-53.6-62-138c-21.2-60.8-40.8-137.9-45.9-223.4l0,0c-11-183.6,45.1-406.3,297.1-590.9
		c208.4-152.6-13-253.4,152.6-423.3C789.5,320,985.4,385.7,1071.1,437c126.4,75.6,281.9,162.3,354.1,688.4
		C1508.7,1733.2,1869.3,1829,1869.3,1829z"/>
	<path class="st4" d="M1331.7,1827.6H603.4c-171.4-0.5-280.5-1.1-280.8-2l-0.2-0.5c0,0-0.2-0.5-0.2-0.7c-0.3-0.6-32.6-53.6-62-138
		c-21.2-60.8-40.8-137.9-45.9-223.4c62.9,0.8,210.7,18.9,322.4,158.8C682.3,1804,1223.1,1566.3,1331.7,1827.6z"/>
	<g>
		<path class="st5" d="M2063.2,1088.7c0,133.2-52.2,254.2-137.3,343.6c-90.8,95.5-219.1,155-361.2,155
			c-275.3,0-498.5-223.2-498.5-498.5c0-131.7,51.1-251.5,134.5-340.6c91-97.2,220.4-158,364.1-158
			C1840,590.1,2063.2,813.3,2063.2,1088.7z"/>
		<path class="st6" d="M2063.2,1088.7c0,133.2-52.2,254.2-137.3,343.6l-725.3-684.2c91-97.2,220.4-158,364.1-158
			C1840,590.1,2063.2,813.3,2063.2,1088.7z"/>
		<g>
			<path class="st1" d="M1512.2,676l-17.2,4.8l-3.5-13.6l25.6-8.2h11.7v96h-16.6V676z"/>
			<path class="st1" d="M1548.5,741.8l32.8-27.9c13.1-11,17.8-17.2,17.8-25.7c0-9.4-6.7-14.8-15.4-14.8c-8.7,0-14.7,4.8-22.1,14.3
				l-11.8-9.3c9.1-12.8,18.1-20,35.1-20c18.7,0,31.5,11.4,31.5,28.7c0,15-8,23-24.8,36.9l-19.6,16.3h45.3V755h-68.9L1548.5,741.8
				L1548.5,741.8z"/>
		</g>
		<g>
			<path class="st1" d="M1529.4,1490.6c-7.4-7.4-11.7-17.3-11.7-36.8c0-29.1,13.9-51.9,40.9-51.9c12.4,0,20.8,3.9,29.1,10.6l-9,12.9
				c-6.7-5.2-12.4-8.3-20.7-8.3c-14.2,0-22.1,12.8-22.9,30.2c5-4.9,11.6-9.5,22.7-9.5c18.5,0,33.4,10.9,33.4,30.2
				c0,18.9-15.4,32.4-35.4,32.4C1544.1,1500.5,1535.7,1496.8,1529.4,1490.6z M1574.5,1468.5c0-9.5-7.6-16.6-19.5-16.6
				s-19.3,7.6-19.3,17c0,9.7,7.8,17.2,19.7,17.2C1567.3,1486.1,1574.5,1478.6,1574.5,1468.5z"/>
		</g>
		<g>
			<path class="st1" d="M1888.8,1117.8l11.7-10.9c6.8,8,14.4,12.5,25.1,12.5c9.4,0,16.5-5.7,16.5-14.7c0-9.4-8.6-14.7-21.9-14.7
				h-7.8l-2.7-10.5l25.7-27.4h-41.3v-14.6h63v12.5l-26.6,27.2c15.1,2.2,28.1,9.9,28.1,27.1c0,17.6-13.6,30.1-33.4,30.1
				C1908.6,1134.5,1896.8,1127.6,1888.8,1117.8z"/>
		</g>
		<g>
			<path class="st1" d="M1168.8,1123.9l9.1-12.8c7.2,6.1,13.6,9,21.8,9c14,0,22.5-12.4,23-30c-4.8,5.7-12.1,10.1-22.3,10.1
				c-20.3,0-33.8-11.8-33.8-30.5s14.4-33,35.5-33c12,0,19.7,3.4,26.4,10.1c7.1,7.1,11.6,17.6,11.6,36.6c0,30.6-15.3,51.9-40.9,51.9
				C1186.1,1135.3,1176.9,1130.6,1168.8,1123.9z M1222.2,1068.7c0-9.9-7.8-17.6-19.9-17.6c-11.8,0-18.9,7.9-18.9,18
				c0,9.9,7.6,17,19.5,17C1215,1086.2,1222.2,1078.3,1222.2,1068.7z"/>
		</g>
		<g>
			<g>
				<path class="st7" d="M1560.7,1711.2L1560.7,1711.2c-3.6,0-7.3-0.1-10.8-0.2c-1.3,0-2.4-1.1-2.3-2.5c0-1.3,1.2-2.4,2.5-2.3
					c3.5,0.1,7.1,0.1,10.7,0.2c1.3,0,2.4,1.1,2.4,2.4C1563.1,1710.1,1562,1711.2,1560.7,1711.2z M1571.5,1711.2
					c-1.3,0-2.4-1.1-2.4-2.4s1-2.4,2.4-2.4c3.6,0,7.2-0.1,10.7-0.2c1.3-0.1,2.4,1,2.5,2.3c0,1.3-1,2.4-2.3,2.5
					C1578.8,1711.1,1575.1,1711.1,1571.5,1711.2L1571.5,1711.2z M1539.2,1710.6L1539.2,1710.6c-3.7-0.2-7.4-0.3-10.9-0.5
					c-1.3-0.1-2.3-1.2-2.2-2.5c0.1-1.3,1.2-2.3,2.5-2.2c3.5,0.2,7.1,0.4,10.7,0.5c1.3,0.1,2.3,1.2,2.3,2.5
					C1541.5,1709.6,1540.4,1710.6,1539.2,1710.6z M1593,1710.6c-1.3,0-2.3-1-2.4-2.3s1-2.4,2.3-2.5c3.6-0.2,7.2-0.3,10.7-0.6
					c1.3-0.1,2.5,0.9,2.5,2.2c0.1,1.3-0.9,2.5-2.2,2.5c-3.6,0.2-7.2,0.4-10.8,0.6C1593.1,1710.6,1593.1,1710.6,1593,1710.6z
					 M1517.6,1709.4c-0.1,0-0.1,0-0.2,0c-3.6-0.3-7.2-0.6-10.8-0.9c-1.3-0.1-2.3-1.3-2.2-2.6c0.1-1.3,1.3-2.3,2.6-2.2
					c3.5,0.3,7.1,0.6,10.7,0.9c1.3,0.1,2.3,1.3,2.2,2.6C1519.9,1708.4,1518.9,1709.4,1517.6,1709.4z M1614.6,1709.3
					c-1.2,0-2.3-1-2.4-2.2c-0.1-1.3,0.9-2.5,2.2-2.6c3.6-0.3,7.2-0.6,10.7-0.9c1.3-0.1,2.5,0.8,2.6,2.2s-0.8,2.5-2.2,2.6
					C1622,1708.7,1618.3,1709.1,1614.6,1709.3C1614.7,1709.3,1614.6,1709.3,1614.6,1709.3z M1496.2,1707.4c-0.1,0-0.2,0-0.3,0
					c-3.6-0.4-7.2-0.8-10.8-1.3c-1.3-0.2-2.2-1.4-2.1-2.7c0.2-1.3,1.4-2.2,2.7-2.1c3.5,0.5,7.1,0.9,10.7,1.3
					c1.3,0.1,2.3,1.3,2.1,2.6C1498.4,1706.5,1497.4,1707.4,1496.2,1707.4z M1636,1707.3c-1.2,0-2.2-0.9-2.4-2.1
					c-0.1-1.3,0.8-2.5,2.1-2.6c3.5-0.4,7.1-0.8,10.7-1.3c1.3-0.2,2.5,0.8,2.7,2.1c0.2,1.3-0.8,2.5-2.1,2.7
					c-3.6,0.5-7.2,0.9-10.7,1.3C1636.2,1707.3,1636.1,1707.3,1636,1707.3z M1474.8,1704.6c-0.1,0-0.2,0-0.4,0
					c-3.6-0.5-7.2-1.1-10.7-1.7c-1.3-0.2-2.2-1.4-2-2.7c0.2-1.3,1.4-2.2,2.7-2c3.5,0.6,7.1,1.1,10.6,1.7c1.3,0.2,2.2,1.4,2,2.7
					C1476.9,1703.7,1475.9,1704.6,1474.8,1704.6z M1657.4,1704.5c-1.2,0-2.2-0.9-2.4-2c-0.2-1.3,0.7-2.5,2-2.7
					c3.5-0.5,7.1-1.1,10.6-1.7c1.3-0.2,2.5,0.7,2.8,2c0.2,1.3-0.7,2.5-2,2.8c-3.6,0.6-7.2,1.2-10.7,1.7
					C1657.6,1704.5,1657.5,1704.5,1657.4,1704.5z M1453.5,1701.1c-0.1,0-0.3,0-0.4,0c-3.6-0.7-7.1-1.3-10.6-2
					c-1.3-0.3-2.1-1.5-1.9-2.8c0.3-1.3,1.5-2.1,2.8-1.9c3.5,0.7,7,1.4,10.6,2c1.3,0.2,2.2,1.5,1.9,2.8
					C1455.6,1700.3,1454.6,1701.1,1453.5,1701.1z M1678.7,1700.9c-1.1,0-2.1-0.8-2.4-2c-0.2-1.3,0.6-2.5,1.9-2.8
					c3.5-0.6,7-1.3,10.5-2c1.3-0.3,2.6,0.6,2.8,1.9c0.3,1.3-0.6,2.6-1.9,2.8c-3.5,0.7-7.1,1.4-10.6,2
					C1679,1700.9,1678.8,1700.9,1678.7,1700.9z M1432.3,1696.9c-0.2,0-0.3,0-0.5-0.1c-3.5-0.8-7.1-1.6-10.6-2.4
					c-1.3-0.3-2.1-1.6-1.8-2.9c0.3-1.3,1.6-2.1,2.9-1.8c3.4,0.8,7,1.6,10.5,2.4c1.3,0.3,2.1,1.6,1.8,2.8
					C1434.4,1696.1,1433.4,1696.9,1432.3,1696.9z M1699.8,1696.7c-1.1,0-2.1-0.8-2.3-1.9c-0.3-1.3,0.5-2.6,1.8-2.9
					c3.5-0.8,7-1.6,10.5-2.4c1.3-0.3,2.6,0.5,2.9,1.8s-0.5,2.6-1.8,2.9c-3.5,0.8-7.1,1.7-10.6,2.4
					C1700.2,1696.7,1700,1696.7,1699.8,1696.7z M1411.3,1691.9c-0.2,0-0.4,0-0.6-0.1c-3.5-0.9-7-1.8-10.5-2.8
					c-1.3-0.3-2-1.7-1.7-2.9c0.3-1.3,1.7-2,2.9-1.7c3.4,0.9,6.9,1.9,10.4,2.8c1.3,0.3,2.1,1.6,1.7,2.9
					C1413.4,1691.2,1412.4,1691.9,1411.3,1691.9z M1720.8,1691.7c-1.1,0-2-0.7-2.3-1.8c-0.3-1.3,0.4-2.6,1.7-2.9
					c3.5-0.9,7-1.8,10.4-2.8c1.3-0.3,2.6,0.4,2.9,1.7c0.4,1.3-0.4,2.6-1.7,2.9c-3.5,1-7,1.9-10.5,2.8
					C1721.2,1691.7,1721,1691.7,1720.8,1691.7z M1390.5,1686.2c-0.2,0-0.4,0-0.7-0.1c-3.4-1-6.9-2.1-10.4-3.1c-1.3-0.4-2-1.7-1.6-3
					s1.7-2,3-1.6c3.4,1.1,6.9,2.1,10.3,3.1c1.3,0.4,2,1.7,1.6,3C1392.5,1685.5,1391.6,1686.2,1390.5,1686.2z M1741.6,1685.9
					c-1,0-2-0.7-2.3-1.7c-0.4-1.3,0.4-2.6,1.6-3c3.4-1,6.9-2.1,10.3-3.1c1.3-0.4,2.6,0.3,3,1.6c0.4,1.3-0.3,2.6-1.6,3
					c-3.4,1.1-6.9,2.1-10.4,3.2C1742.1,1685.9,1741.8,1685.9,1741.6,1685.9z M1369.9,1679.7c-0.2,0-0.5,0-0.8-0.1
					c-3.4-1.1-6.9-2.3-10.3-3.5c-1.2-0.4-1.9-1.8-1.5-3s1.8-1.9,3-1.5c3.4,1.2,6.8,2.4,10.2,3.5c1.3,0.4,1.9,1.8,1.5,3
					C1371.8,1679.1,1370.9,1679.7,1369.9,1679.7z M1762.2,1679.5c-1,0-1.9-0.6-2.3-1.6c-0.4-1.3,0.3-2.6,1.5-3
					c3.4-1.1,6.8-2.3,10.2-3.5c1.2-0.4,2.6,0.2,3.1,1.5c0.4,1.2-0.2,2.6-1.5,3.1c-3.4,1.2-6.8,2.4-10.2,3.5
					C1762.7,1679.4,1762.4,1679.5,1762.2,1679.5z M1349.5,1672.6c-0.3,0-0.6,0-0.8-0.1c-3.4-1.3-6.8-2.6-10.2-3.9
					c-1.2-0.5-1.8-1.9-1.4-3.1c0.5-1.2,1.9-1.8,3.1-1.4c3.3,1.3,6.7,2.6,10.1,3.8c1.2,0.5,1.9,1.8,1.4,3.1
					C1351.4,1672,1350.4,1672.6,1349.5,1672.6z M1782.5,1672.3c-1,0-1.9-0.6-2.2-1.6c-0.5-1.2,0.2-2.6,1.4-3.1
					c3.3-1.2,6.7-2.5,10-3.8c1.2-0.5,2.6,0.1,3.1,1.4c0.5,1.2-0.1,2.6-1.4,3.1c-3.4,1.3-6.8,2.6-10.1,3.9
					C1783.1,1672.3,1782.8,1672.3,1782.5,1672.3z M1329.3,1664.7c-0.3,0-0.6-0.1-0.9-0.2c-3.3-1.4-6.7-2.8-10-4.2
					c-1.2-0.5-1.8-1.9-1.2-3.1c0.5-1.2,1.9-1.8,3.1-1.2c3.3,1.4,6.6,2.8,9.9,4.2c1.2,0.5,1.8,1.9,1.3,3.1
					C1331.2,1664.1,1330.3,1664.7,1329.3,1664.7z M1802.6,1664.4c-0.9,0-1.8-0.6-2.2-1.5c-0.5-1.2,0.1-2.6,1.3-3.1
					c3.3-1.4,6.6-2.8,9.9-4.2c1.2-0.5,2.6,0,3.1,1.2s0,2.6-1.2,3.1c-3.3,1.4-6.6,2.8-9.9,4.2
					C1803.2,1664.4,1802.9,1664.4,1802.6,1664.4z M1309.5,1656.1c-0.3,0-0.7-0.1-1-0.2c-3.3-1.5-6.6-3-9.8-4.6
					c-1.2-0.6-1.7-2-1.1-3.2s2-1.7,3.2-1.1c3.2,1.5,6.5,3.1,9.8,4.5c1.2,0.5,1.7,2,1.2,3.2
					C1311.2,1655.6,1310.4,1656.1,1309.5,1656.1z M1822.3,1655.9c-0.9,0-1.8-0.5-2.2-1.4c-0.5-1.2,0-2.6,1.2-3.2
					c3.2-1.5,6.5-3,9.7-4.5c1.2-0.6,2.6-0.1,3.2,1.1s0.1,2.6-1.1,3.2c-3.2,1.5-6.5,3.1-9.8,4.5
					C1823,1655.8,1822.7,1655.9,1822.3,1655.9z M1289.9,1646.8c-0.4,0-0.7-0.1-1.1-0.2c-3.2-1.6-6.5-3.3-9.7-4.9
					c-1.2-0.6-1.6-2.1-1-3.2c0.6-1.2,2.1-1.6,3.2-1c3.1,1.6,6.4,3.3,9.6,4.9c1.2,0.6,1.7,2,1.1,3.2
					C1291.7,1646.3,1290.8,1646.8,1289.9,1646.8z M1841.7,1646.7c-0.9,0-1.7-0.5-2.1-1.3c-0.6-1.2-0.1-2.6,1.1-3.2
					c3.2-1.6,6.4-3.2,9.5-4.8c1.2-0.6,2.6-0.2,3.2,1s0.2,2.6-1,3.2c-3.2,1.6-6.4,3.3-9.6,4.9
					C1842.5,1646.6,1842.1,1646.7,1841.7,1646.7z M1270.7,1636.9c-0.4,0-0.8-0.1-1.1-0.3c-3.2-1.7-6.3-3.5-9.5-5.2
					c-1.2-0.6-1.6-2.1-0.9-3.3c0.6-1.2,2.1-1.6,3.3-0.9c3.1,1.8,6.3,3.5,9.4,5.2c1.2,0.6,1.6,2.1,1,3.2
					C1272.4,1636.4,1271.6,1636.9,1270.7,1636.9z M1860.8,1636.8c-0.9,0-1.7-0.5-2.1-1.3c-0.6-1.2-0.2-2.6,1-3.2
					c3.1-1.7,6.3-3.4,9.4-5.2c1.2-0.6,2.6-0.2,3.3,0.9c0.6,1.2,0.2,2.6-0.9,3.3c-3.1,1.8-6.3,3.5-9.5,5.2
					C1861.6,1636.7,1861.2,1636.8,1860.8,1636.8z M1251.9,1626.3c-0.4,0-0.8-0.1-1.2-0.3c-3.1-1.8-6.2-3.7-9.3-5.6
					c-1.1-0.7-1.5-2.2-0.8-3.3c0.7-1.1,2.2-1.5,3.3-0.8c3,1.9,6.1,3.7,9.2,5.5c1.1,0.7,1.5,2.1,0.9,3.3
					C1253.5,1625.9,1252.7,1626.3,1251.9,1626.3z M1879.6,1626.2c-0.8,0-1.6-0.4-2.1-1.2c-0.7-1.1-0.3-2.6,0.9-3.3
					c3.1-1.8,6.2-3.7,9.2-5.5c1.1-0.7,2.6-0.3,3.3,0.8c0.7,1.1,0.3,2.6-0.8,3.3c-3.1,1.9-6.2,3.7-9.3,5.5
					C1880.4,1626.1,1880,1626.2,1879.6,1626.2z M1233.5,1615c-0.4,0-0.9-0.1-1.3-0.4c-3-1.9-6.1-3.9-9.1-5.9
					c-1.1-0.7-1.4-2.2-0.7-3.3c0.7-1.1,2.2-1.4,3.3-0.7c3,2,6,3.9,9,5.8c1.1,0.7,1.4,2.2,0.7,3.3
					C1235,1614.6,1234.2,1615,1233.5,1615z M1898,1615c-0.8,0-1.6-0.4-2-1.1c-0.7-1.1-0.4-2.6,0.7-3.3c3-1.9,6-3.9,9-5.8
					c1.1-0.7,2.6-0.4,3.3,0.7c0.7,1.1,0.4,2.6-0.7,3.3c-3,2-6,3.9-9.1,5.9C1898.8,1614.9,1898.4,1615,1898,1615z M1215.4,1603.2
					c-0.5,0-0.9-0.1-1.3-0.4c-3-2-6-4.1-8.9-6.2c-1.1-0.8-1.3-2.3-0.6-3.3c0.8-1.1,2.3-1.3,3.3-0.6c2.9,2.1,5.9,4.1,8.8,6.1
					c1.1,0.7,1.4,2.2,0.6,3.3C1216.9,1602.8,1216.2,1603.2,1215.4,1603.2z M1915.9,1603.2c-0.8,0-1.5-0.4-2-1
					c-0.7-1.1-0.5-2.6,0.6-3.3c2.9-2,5.9-4.1,8.8-6.1c1.1-0.8,2.6-0.5,3.3,0.6c0.8,1.1,0.5,2.6-0.6,3.3c-2.9,2.1-5.9,4.2-8.9,6.2
					C1916.9,1603,1916.4,1603.2,1915.9,1603.2z M1933.5,1590.7c-0.7,0-1.5-0.3-1.9-1c-0.8-1.1-0.6-2.6,0.5-3.3
					c2.9-2.1,5.8-4.3,8.6-6.4c1-0.8,2.6-0.6,3.4,0.5s0.6,2.6-0.5,3.4c-2.8,2.2-5.7,4.3-8.7,6.5
					C1934.5,1590.5,1934,1590.7,1933.5,1590.7z M1197.8,1590.7c-0.5,0-1-0.2-1.4-0.5c-2.9-2.1-5.8-4.3-8.7-6.5
					c-1.1-0.8-1.3-2.3-0.5-3.4s2.3-1.3,3.4-0.5c2.8,2.2,5.7,4.3,8.6,6.4c1.1,0.8,1.3,2.3,0.5,3.3
					C1199.3,1590.3,1198.5,1590.7,1197.8,1590.7z M1950.6,1577.6c-0.7,0-1.4-0.3-1.9-0.9c-0.8-1-0.6-2.5,0.4-3.4
					c2.8-2.2,5.6-4.5,8.4-6.7c1-0.8,2.5-0.7,3.4,0.3c0.8,1,0.7,2.5-0.3,3.4c-2.8,2.3-5.6,4.6-8.4,6.8
					C1951.7,1577.5,1951.2,1577.6,1950.6,1577.6z M1180.6,1577.6c-0.5,0-1-0.2-1.5-0.5c-2.8-2.2-5.7-4.5-8.4-6.8
					c-1-0.8-1.2-2.3-0.3-3.4c0.8-1,2.3-1.2,3.4-0.3c2.7,2.2,5.6,4.5,8.4,6.7c1,0.8,1.2,2.3,0.4,3.4
					C1182,1577.3,1181.3,1577.6,1180.6,1577.6z M1967.3,1564c-0.7,0-1.4-0.3-1.8-0.8c-0.9-1-0.7-2.5,0.3-3.4c2.7-2.3,5.4-4.7,8.1-7
					c1-0.9,2.5-0.8,3.4,0.2s0.8,2.5-0.2,3.4c-2.7,2.4-5.5,4.8-8.2,7.1C1968.4,1563.8,1967.9,1564,1967.3,1564z M1163.9,1563.9
					c-0.5,0-1.1-0.2-1.5-0.6c-2.8-2.3-5.5-4.7-8.2-7.1c-1-0.9-1.1-2.4-0.2-3.4s2.4-1.1,3.4-0.2c2.7,2.3,5.4,4.7,8.1,7
					c1,0.9,1.1,2.4,0.3,3.4C1165.3,1563.6,1164.6,1563.9,1163.9,1563.9z M1983.5,1549.8c-0.7,0-1.3-0.3-1.8-0.8
					c-0.9-1-0.8-2.5,0.2-3.4c2.6-2.4,5.3-4.9,7.9-7.3c1-0.9,2.5-0.9,3.4,0.1s0.9,2.5-0.1,3.4c-2.6,2.5-5.3,4.9-7.9,7.3
					C1984.7,1549.6,1984.1,1549.8,1983.5,1549.8z M1147.7,1549.7c-0.6,0-1.2-0.2-1.6-0.6c-2.6-2.4-5.3-4.9-7.9-7.4
					c-1-0.9-1-2.4-0.1-3.4s2.4-1,3.4-0.1c2.6,2.5,5.3,4.9,7.9,7.3c1,0.9,1,2.4,0.2,3.4C1149,1549.4,1148.4,1549.7,1147.7,1549.7z
					 M1999.2,1535c-0.6,0-1.2-0.2-1.7-0.7c-0.9-0.9-0.9-2.5,0-3.4c2.6-2.5,5.1-5.1,7.6-7.6c0.9-0.9,2.4-0.9,3.4,0
					c0.9,0.9,0.9,2.4,0,3.4c-2.5,2.5-5.1,5.1-7.7,7.6C2000.4,1534.8,1999.8,1535,1999.2,1535z M1132,1534.9c-0.6,0-1.2-0.2-1.7-0.7
					c-2.6-2.5-5.2-5.1-7.7-7.6c-0.9-0.9-0.9-2.5,0-3.4s2.5-0.9,3.4,0c2.5,2.5,5.1,5.1,7.6,7.6c0.9,0.9,1,2.4,0,3.4
					C1133.3,1534.6,1132.7,1534.9,1132,1534.9z M2014.4,1519.7c-0.6,0-1.2-0.2-1.7-0.7c-1-0.9-1-2.4-0.1-3.4c2.5-2.6,5-5.2,7.4-7.8
					c0.9-1,2.4-1,3.4-0.1s1,2.4,0.1,3.4c-2.4,2.6-4.9,5.3-7.4,7.9C2015.7,1519.4,2015,1519.7,2014.4,1519.7z M1116.8,1519.6
					c-0.6,0-1.3-0.2-1.7-0.7c-2.5-2.6-5-5.2-7.4-7.9c-0.9-1-0.8-2.5,0.1-3.4c1-0.9,2.5-0.8,3.4,0.1c2.4,2.6,4.9,5.3,7.4,7.8
					c0.9,1,0.9,2.5-0.1,3.4C1118,1519.3,1117.4,1519.6,1116.8,1519.6z M2029,1503.8c-0.6,0-1.1-0.2-1.6-0.6c-1-0.9-1.1-2.4-0.2-3.4
					c2.4-2.7,4.8-5.4,7.1-8.1c0.9-1,2.4-1.1,3.4-0.2s1.1,2.4,0.2,3.4c-2.3,2.7-4.7,5.4-7.1,8.1
					C2030.4,1503.6,2029.7,1503.8,2029,1503.8z M1102.2,1503.7c-0.7,0-1.3-0.3-1.8-0.8c-2.4-2.7-4.8-5.4-7.1-8.1
					c-0.9-1-0.8-2.5,0.2-3.4s2.5-0.8,3.4,0.2c2.3,2.7,4.7,5.4,7.1,8.1c0.9,1,0.8,2.5-0.2,3.4
					C1103.3,1503.5,1102.8,1503.7,1102.2,1503.7z M2043.2,1487.5c-0.5,0-1.1-0.2-1.5-0.6c-1-0.8-1.2-2.4-0.3-3.4
					c2.3-2.8,4.6-5.6,6.8-8.3c0.8-1,2.3-1.2,3.4-0.4c1,0.8,1.2,2.3,0.4,3.4c-2.2,2.8-4.5,5.6-6.9,8.4
					C2044.5,1487.2,2043.8,1487.5,2043.2,1487.5z M1088.1,1487.4c-0.7,0-1.4-0.3-1.8-0.9c-2.3-2.8-4.6-5.6-6.9-8.4
					c-0.8-1-0.7-2.5,0.4-3.4c1-0.8,2.5-0.7,3.4,0.4c2.2,2.8,4.5,5.6,6.8,8.3c0.8,1,0.7,2.5-0.3,3.4
					C1089.2,1487.2,1088.7,1487.4,1088.1,1487.4z M2056.7,1470.7c-0.5,0-1-0.2-1.5-0.5c-1-0.8-1.2-2.3-0.4-3.4
					c2.2-2.8,4.4-5.7,6.5-8.5c0.8-1.1,2.3-1.3,3.3-0.5s1.3,2.3,0.5,3.3c-2.2,2.9-4.4,5.8-6.6,8.6
					C2058.1,1470.4,2057.4,1470.7,2056.7,1470.7z M1074.6,1470.6c-0.7,0-1.4-0.3-1.9-0.9c-2.2-2.8-4.4-5.7-6.6-8.6
					c-0.8-1.1-0.6-2.6,0.5-3.3c1.1-0.8,2.6-0.6,3.3,0.5c2.1,2.8,4.3,5.7,6.5,8.5c0.8,1,0.6,2.5-0.4,3.4
					C1075.6,1470.5,1075.1,1470.6,1074.6,1470.6z M2069.6,1453.4c-0.5,0-1-0.1-1.4-0.5c-1.1-0.8-1.3-2.3-0.5-3.3
					c2.1-2.9,4.2-5.8,6.2-8.8c0.8-1.1,2.2-1.4,3.3-0.6s1.4,2.2,0.6,3.3c-2.1,2.9-4.2,5.9-6.3,8.8
					C2071.1,1453.1,2070.4,1453.4,2069.6,1453.4z M1061.7,1453.4c-0.7,0-1.5-0.3-1.9-1c-2.1-2.9-4.2-5.9-6.3-8.8
					c-0.8-1.1-0.5-2.6,0.6-3.3c1.1-0.8,2.6-0.5,3.3,0.6c2,2.9,4.1,5.9,6.2,8.7c0.8,1.1,0.5,2.6-0.5,3.3
					C1062.7,1453.3,1062.2,1453.4,1061.7,1453.4z M1049.4,1435.7c-0.8,0-1.5-0.4-2-1.1c-2-3-4-6-5.9-9c-0.7-1.1-0.4-2.6,0.7-3.3
					c1.1-0.7,2.6-0.4,3.3,0.7c1.9,3,3.9,6,5.9,9c0.7,1.1,0.4,2.6-0.7,3.3C1050.3,1435.6,1049.8,1435.7,1049.4,1435.7z M2082,1435.7
					c-0.5,0-0.9-0.1-1.3-0.4c-1.1-0.7-1.4-2.2-0.7-3.3c2-3,4-6,5.9-9c0.7-1.1,2.2-1.4,3.3-0.7c1.1,0.7,1.4,2.2,0.7,3.3
					c-1.9,3-4,6.1-6,9.1C2083.5,1435.3,2082.7,1435.7,2082,1435.7z M1037.7,1417.7c-0.8,0-1.6-0.4-2-1.1c-1.9-3-3.8-6.1-5.6-9.2
					c-0.7-1.1-0.3-2.6,0.8-3.3c1.1-0.7,2.6-0.3,3.3,0.8c1.8,3.1,3.7,6.1,5.6,9.2c0.7,1.1,0.4,2.6-0.8,3.3
					C1038.6,1417.5,1038.1,1417.7,1037.7,1417.7z M2093.7,1417.6c-0.4,0-0.9-0.1-1.3-0.4c-1.1-0.7-1.5-2.2-0.8-3.3
					c1.9-3,3.8-6.1,5.6-9.2c0.7-1.1,2.1-1.5,3.3-0.8c1.1,0.7,1.5,2.1,0.8,3.3c-1.8,3.1-3.7,6.2-5.6,9.3
					C2095.3,1417.2,2094.5,1417.6,2093.7,1417.6z M1026.6,1399.2c-0.8,0-1.6-0.4-2.1-1.2c-1.8-3.1-3.6-6.3-5.3-9.4
					c-0.6-1.2-0.2-2.6,0.9-3.3c1.2-0.6,2.6-0.2,3.3,0.9c1.7,3.1,3.5,6.3,5.3,9.3c0.7,1.1,0.3,2.6-0.9,3.3
					C1027.5,1399.1,1027,1399.2,1026.6,1399.2z M2104.8,1399c-0.4,0-0.8-0.1-1.2-0.3c-1.1-0.7-1.5-2.1-0.9-3.3
					c1.8-3.1,3.6-6.3,5.3-9.4c0.6-1.2,2.1-1.6,3.3-0.9c1.2,0.6,1.6,2.1,0.9,3.3c-1.7,3.1-3.5,6.3-5.3,9.5
					C2106.4,1398.6,2105.6,1399,2104.8,1399z M1016.2,1380.4c-0.9,0-1.7-0.5-2.1-1.3c-1.7-3.2-3.3-6.4-5-9.6c-0.6-1.2-0.1-2.6,1-3.2
					c1.2-0.6,2.6-0.1,3.2,1c1.6,3.2,3.3,6.4,4.9,9.5c0.6,1.2,0.2,2.6-1,3.2C1017,1380.3,1016.6,1380.4,1016.2,1380.4z
					 M2115.2,1380.1c-0.4,0-0.8-0.1-1.1-0.3c-1.2-0.6-1.6-2.1-1-3.2c1.7-3.2,3.3-6.4,5-9.6c0.6-1.2,2-1.6,3.2-1.1
					c1.2,0.6,1.6,2,1.1,3.2c-1.6,3.2-3.3,6.5-5,9.6C2116.9,1379.6,2116.1,1380.1,2115.2,1380.1z M1006.5,1361.2
					c-0.9,0-1.7-0.5-2.2-1.3c-1.6-3.2-3.1-6.5-4.6-9.7c-0.6-1.2,0-2.6,1.2-3.2s2.6,0,3.2,1.2c1.5,3.2,3.1,6.5,4.6,9.7
					c0.6,1.2,0.1,2.6-1.1,3.2C1007.2,1361.1,1006.9,1361.2,1006.5,1361.2z M2125,1360.8c-0.4,0-0.7-0.1-1-0.2
					c-1.2-0.6-1.7-2-1.1-3.2c1.6-3.2,3.1-6.5,4.6-9.7c0.6-1.2,2-1.7,3.2-1.2c1.2,0.6,1.7,2,1.2,3.2c-1.5,3.3-3.1,6.6-4.7,9.8
					C2126.8,1360.3,2125.9,1360.8,2125,1360.8z M997.4,1341.7c-0.9,0-1.8-0.5-2.2-1.4c-1.5-3.3-2.9-6.6-4.3-9.9
					c-0.5-1.2,0.1-2.6,1.3-3.1s2.6,0.1,3.1,1.3c1.4,3.3,2.8,6.6,4.3,9.8c0.5,1.2,0,2.6-1.2,3.2
					C998.1,1341.6,997.8,1341.7,997.4,1341.7z M2134.1,1341.2c-0.3,0-0.7-0.1-1-0.2c-1.2-0.5-1.8-1.9-1.2-3.2
					c1.5-3.3,2.9-6.6,4.3-9.9c0.5-1.2,1.9-1.8,3.1-1.3c1.2,0.5,1.8,1.9,1.3,3.1c-1.4,3.3-2.8,6.7-4.3,10
					C2135.9,1340.7,2135,1341.2,2134.1,1341.2z M989.1,1321.9c-0.9,0-1.8-0.6-2.2-1.5c-1.3-3.3-2.7-6.7-4-10.1
					c-0.5-1.2,0.1-2.6,1.4-3.1c1.2-0.5,2.6,0.1,3.1,1.4c1.3,3.3,2.6,6.7,3.9,10c0.5,1.2-0.1,2.6-1.3,3.1
					C989.7,1321.9,989.4,1321.9,989.1,1321.9z M2142.5,1321.3c-0.3,0-0.6-0.1-0.9-0.2c-1.2-0.5-1.8-1.9-1.3-3.1
					c1.3-3.3,2.7-6.7,3.9-10c0.5-1.2,1.8-1.9,3.1-1.4c1.2,0.5,1.9,1.9,1.4,3.1c-1.3,3.4-2.6,6.8-4,10.1
					C2144.4,1320.7,2143.5,1321.3,2142.5,1321.3z M981.4,1301.8c-1,0-1.9-0.6-2.2-1.6c-1.2-3.4-2.4-6.8-3.6-10.2
					c-0.4-1.3,0.2-2.6,1.5-3s2.6,0.2,3,1.5c1.2,3.4,2.4,6.8,3.6,10.1c0.5,1.2-0.2,2.6-1.4,3.1
					C981.9,1301.7,981.6,1301.8,981.4,1301.8z M2150.2,1301.1c-0.3,0-0.5,0-0.8-0.1c-1.2-0.4-1.9-1.8-1.4-3.1
					c1.2-3.4,2.4-6.8,3.6-10.2c0.4-1.3,1.8-1.9,3-1.5s1.9,1.8,1.5,3c-1.2,3.4-2.4,6.9-3.6,10.3
					C2152.1,1300.4,2151.2,1301.1,2150.2,1301.1z M974.3,1281.4c-1,0-1.9-0.6-2.3-1.7c-1.1-3.4-2.2-6.9-3.2-10.3
					c-0.4-1.3,0.3-2.6,1.6-3s2.6,0.3,3,1.6c1,3.4,2.1,6.8,3.2,10.3c0.4,1.3-0.3,2.6-1.5,3C974.8,1281.3,974.6,1281.4,974.3,1281.4z
					 M2157.2,1280.6c-0.2,0-0.5,0-0.7-0.1c-1.3-0.4-1.9-1.8-1.5-3c1.1-3.4,2.2-6.9,3.2-10.3c0.4-1.3,1.7-2,3-1.6s2,1.7,1.6,3
					c-1,3.4-2.1,6.9-3.2,10.4C2159.2,1279.9,2158.3,1280.6,2157.2,1280.6z M968.1,1260.7c-1,0-2-0.7-2.3-1.7c-1-3.4-2-7-2.9-10.4
					c-0.3-1.3,0.4-2.6,1.7-2.9s2.6,0.4,2.9,1.7c0.9,3.4,1.9,6.9,2.9,10.4c0.4,1.3-0.4,2.6-1.6,3
					C968.5,1260.7,968.3,1260.7,968.1,1260.7z M2163.5,1259.9c-0.2,0-0.4,0-0.7-0.1c-1.3-0.4-2-1.7-1.6-3c1-3.4,1.9-6.9,2.8-10.4
					c0.3-1.3,1.6-2,2.9-1.7c1.3,0.3,2,1.6,1.7,2.9c-0.9,3.5-1.9,7-2.9,10.4C2165.5,1259.2,2164.6,1259.9,2163.5,1259.9z
					 M962.5,1239.9c-1.1,0-2.1-0.7-2.3-1.8c-0.9-3.5-1.7-7-2.5-10.5c-0.3-1.3,0.5-2.6,1.8-2.9s2.6,0.5,2.9,1.8
					c0.8,3.5,1.6,7,2.5,10.4c0.3,1.3-0.5,2.6-1.7,2.9C962.9,1239.9,962.7,1239.9,962.5,1239.9z M2169,1239c-0.2,0-0.4,0-0.6-0.1
					c-1.3-0.3-2.1-1.6-1.8-2.9c0.9-3.5,1.7-7,2.5-10.5c0.3-1.3,1.6-2.1,2.9-1.8c1.3,0.3,2.1,1.6,1.8,2.9c-0.8,3.5-1.6,7-2.5,10.5
					C2171.1,1238.3,2170.1,1239,2169,1239z M957.7,1218.9c-1.1,0-2.1-0.8-2.3-1.9c-0.7-3.5-1.5-7.1-2.1-10.6
					c-0.3-1.3,0.6-2.6,1.9-2.8c1.3-0.2,2.6,0.6,2.8,1.9c0.7,3.5,1.4,7,2.1,10.5c0.3,1.3-0.6,2.6-1.8,2.8
					C958,1218.8,957.8,1218.9,957.7,1218.9z M2173.8,1218c-0.2,0-0.3,0-0.5-0.1c-1.3-0.3-2.1-1.5-1.8-2.8c0.7-3.5,1.4-7,2.1-10.5
					c0.2-1.3,1.5-2.1,2.8-1.9s2.1,1.5,1.9,2.8c-0.7,3.5-1.4,7.1-2.1,10.6C2175.9,1217.2,2174.9,1218,2173.8,1218z M953.6,1197.7
					c-1.1,0-2.1-0.8-2.4-2c-0.6-3.5-1.2-7.1-1.8-10.7c-0.2-1.3,0.7-2.5,2-2.7s2.5,0.7,2.7,2c0.6,3.5,1.1,7.1,1.8,10.6
					c0.2,1.3-0.6,2.5-1.9,2.8C953.9,1197.7,953.7,1197.7,953.6,1197.7z M2177.9,1196.8c-0.1,0-0.3,0-0.4,0c-1.3-0.2-2.2-1.5-1.9-2.8
					c0.6-3.5,1.2-7.1,1.7-10.6c0.2-1.3,1.4-2.2,2.7-2s2.2,1.4,2,2.7c-0.6,3.5-1.1,7.1-1.8,10.7
					C2180.1,1196,2179,1196.8,2177.9,1196.8z M950.2,1176.4c-1.2,0-2.2-0.9-2.4-2.1c-0.5-3.5-1-7.2-1.4-10.7
					c-0.2-1.3,0.8-2.5,2.1-2.7s2.5,0.8,2.7,2.1c0.4,3.6,0.9,7.1,1.4,10.7c0.2,1.3-0.7,2.5-2,2.7
					C950.5,1176.4,950.4,1176.4,950.2,1176.4z M2181.2,1175.5c-0.1,0-0.2,0-0.3,0c-1.3-0.2-2.2-1.4-2-2.7c0.5-3.5,1-7.1,1.4-10.7
					c0.2-1.3,1.3-2.2,2.7-2.1c1.3,0.2,2.2,1.3,2.1,2.7c-0.4,3.6-0.9,7.2-1.4,10.7C2183.4,1174.6,2182.4,1175.5,2181.2,1175.5z
					 M947.6,1155c-1.2,0-2.2-0.9-2.4-2.1c-0.4-3.6-0.7-7.2-1-10.8c-0.1-1.3,0.9-2.5,2.2-2.6s2.5,0.9,2.6,2.2c0.3,3.5,0.7,7.1,1,10.7
					c0.1,1.3-0.8,2.5-2.1,2.6C947.8,1155,947.7,1155,947.6,1155z M2183.8,1154.1c-0.1,0-0.2,0-0.2,0c-1.3-0.1-2.3-1.3-2.1-2.6
					c0.4-3.5,0.7-7.1,1-10.7c0.1-1.3,1.3-2.3,2.6-2.2c1.3,0.1,2.3,1.3,2.2,2.6c-0.3,3.6-0.6,7.2-1,10.8
					C2186,1153.2,2185,1154.1,2183.8,1154.1z M945.8,1133.5c-1.2,0-2.3-1-2.4-2.2c-0.2-3.6-0.5-7.2-0.7-10.8
					c-0.1-1.3,0.9-2.4,2.3-2.5c1.3-0.1,2.4,0.9,2.5,2.3c0.2,3.6,0.4,7.2,0.7,10.7c0.1,1.3-0.9,2.5-2.2,2.6
					C945.9,1133.5,945.8,1133.5,945.8,1133.5z M2185.6,1132.6c-0.1,0-0.1,0-0.2,0c-1.3-0.1-2.3-1.2-2.2-2.5
					c0.2-3.5,0.5-7.1,0.6-10.7c0.1-1.3,1.2-2.3,2.5-2.3c1.3,0.1,2.3,1.2,2.3,2.5c-0.2,3.6-0.4,7.2-0.6,10.8
					C2187.9,1131.6,2186.9,1132.6,2185.6,1132.6z M944.6,1111.9c-1.3,0-2.3-1-2.4-2.3c-0.1-3.6-0.2-7.2-0.3-10.8
					c0-1.3,1-2.4,2.3-2.4l0,0c1.3,0,2.4,1,2.4,2.3c0.1,3.6,0.2,7.2,0.3,10.7C947.1,1110.8,946.1,1111.9,944.6,1111.9
					C944.7,1111.9,944.7,1111.9,944.6,1111.9z M2186.7,1111.1L2186.7,1111.1c-1.4,0-2.4-1.2-2.4-2.5c0.1-3.6,0.2-7.2,0.3-10.7
					c0-1.3,1.1-2.3,2.4-2.4c1.3,0,2.4,1.1,2.4,2.4c-0.1,3.6-0.2,7.2-0.3,10.8C2189.1,1110,2188,1111.1,2186.7,1111.1z M944.3,1090.4
					c-1.3,0-2.4-1.1-2.4-2.4v-0.6c0-3.6,0-7.2,0.1-10.8c0-1.3,1.1-2.3,2.4-2.4c1.3,0,2.4,1.1,2.4,2.4c-0.1,3.6-0.1,7.2-0.1,10.7v0.6
					C946.7,1089.3,945.6,1090.4,944.3,1090.4z M2187.1,1089.5c-1.3,0-2.4-1.1-2.4-2.4c0-3.6,0-7.2-0.1-10.7c0-1.3,1-2.4,2.4-2.4
					c1.3,0,2.4,1,2.4,2.4c0.1,3.6,0.1,7.2,0.1,10.8C2189.5,1088.4,2188.4,1089.5,2187.1,1089.5z M944.6,1068.2L944.6,1068.2
					c-1.4,0-2.4-1.2-2.4-2.5c0.1-3.6,0.3-7.2,0.5-10.8c0.1-1.3,1.2-2.3,2.5-2.3c1.3,0.1,2.3,1.2,2.3,2.5c-0.2,3.5-0.3,7.2-0.5,10.7
					C947,1067.2,945.9,1068.2,944.6,1068.2z M2186.7,1067.9c-1.3,0-2.3-1-2.4-2.3c-0.1-3.6-0.3-7.2-0.5-10.7
					c-0.1-1.3,0.9-2.4,2.3-2.5c1.3-0.1,2.4,0.9,2.5,2.3c0.2,3.6,0.3,7.2,0.5,10.8C2189.1,1066.8,2188.1,1067.9,2186.7,1067.9
					C2186.8,1067.9,2186.7,1067.9,2186.7,1067.9z M945.7,1046.7c-0.1,0-0.1,0-0.2,0c-1.3-0.1-2.3-1.2-2.2-2.6
					c0.2-3.6,0.5-7.2,0.8-10.8c0.1-1.3,1.3-2.3,2.6-2.2c1.3,0.1,2.3,1.3,2.2,2.6c-0.3,3.5-0.6,7.1-0.8,10.7
					C948,1045.7,947,1046.7,945.7,1046.7z M2185.6,1046.4c-1.2,0-2.3-1-2.4-2.2c-0.2-3.6-0.5-7.2-0.8-10.7c-0.1-1.3,0.9-2.5,2.2-2.6
					s2.5,0.9,2.6,2.2c0.3,3.6,0.6,7.2,0.8,10.8c0.1,1.3-0.9,2.5-2.2,2.6C2185.7,1046.4,2185.6,1046.4,2185.6,1046.4z M947.6,1025.2
					c-0.1,0-0.2,0-0.2,0c-1.3-0.1-2.3-1.3-2.1-2.6c0.4-3.6,0.8-7.2,1.2-10.8c0.2-1.3,1.3-2.2,2.7-2.1c1.3,0.2,2.2,1.4,2.1,2.7
					c-0.4,3.5-0.8,7.1-1.2,10.7C949.8,1024.3,948.8,1025.2,947.6,1025.2z M2183.7,1024.9c-1.2,0-2.2-0.9-2.4-2.1
					c-0.4-3.6-0.8-7.2-1.2-10.7c-0.2-1.3,0.8-2.5,2.1-2.7s2.5,0.8,2.7,2.1c0.4,3.6,0.8,7.2,1.2,10.8c0.1,1.3-0.8,2.5-2.1,2.6
					C2183.9,1024.9,2183.8,1024.9,2183.7,1024.9z M950.2,1003.8c-0.1,0-0.2,0-0.3,0c-1.3-0.2-2.2-1.4-2-2.7c0.5-3.5,1-7.1,1.6-10.7
					c0.2-1.3,1.4-2.2,2.7-2s2.2,1.4,2,2.7c-0.6,3.5-1.1,7.1-1.6,10.6C952.4,1002.9,951.3,1003.8,950.2,1003.8z M2181.1,1003.5
					c-1.2,0-2.2-0.9-2.4-2.1c-0.5-3.5-1-7.1-1.6-10.6c-0.2-1.3,0.7-2.5,2-2.7s2.5,0.7,2.7,2c0.6,3.6,1.1,7.2,1.6,10.7
					c0.2,1.3-0.7,2.5-2,2.7C2181.4,1003.5,2181.2,1003.5,2181.1,1003.5z M953.5,982.5c-0.1,0-0.3,0-0.4,0c-1.3-0.2-2.2-1.5-1.9-2.8
					c0.6-3.5,1.3-7.1,1.9-10.6c0.2-1.3,1.5-2.1,2.8-1.9c1.3,0.2,2.1,1.5,1.9,2.8c-0.7,3.5-1.3,7.1-1.9,10.6
					C955.6,981.7,954.6,982.5,953.5,982.5z M2177.8,982.2c-1.1,0-2.2-0.8-2.4-2c-0.6-3.5-1.3-7-1.9-10.6c-0.3-1.3,0.6-2.6,1.9-2.8
					c1.3-0.3,2.6,0.6,2.8,1.9c0.7,3.5,1.3,7.1,2,10.6c0.2,1.3-0.6,2.5-1.9,2.8C2178.1,982.2,2177.9,982.2,2177.8,982.2z
					 M957.6,961.3c-0.2,0-0.3,0-0.5-0.1c-1.3-0.3-2.1-1.5-1.8-2.8c0.7-3.5,1.5-7.1,2.3-10.6c0.3-1.3,1.6-2.1,2.9-1.8
					c1.3,0.3,2.1,1.6,1.8,2.9c-0.8,3.5-1.6,7-2.3,10.5C959.7,960.5,958.7,961.3,957.6,961.3z M2173.7,961c-1.1,0-2.1-0.8-2.3-1.9
					c-0.7-3.5-1.5-7-2.3-10.5c-0.3-1.3,0.5-2.6,1.8-2.9c1.3-0.3,2.6,0.5,2.9,1.8c0.8,3.5,1.6,7,2.3,10.6c0.3,1.3-0.6,2.6-1.8,2.8
					C2174,961,2173.9,961,2173.7,961z M962.4,940.3c-0.2,0-0.4,0-0.6-0.1c-1.3-0.3-2.1-1.6-1.7-2.9c0.9-3.5,1.8-7,2.7-10.5
					c0.3-1.3,1.6-2,2.9-1.7c1.3,0.3,2,1.6,1.7,2.9c-0.9,3.4-1.8,6.9-2.7,10.4C964.4,939.5,963.4,940.3,962.4,940.3z M2168.9,940
					c-1.1,0-2.1-0.7-2.3-1.8c-0.9-3.5-1.8-7-2.7-10.4c-0.3-1.3,0.4-2.6,1.7-2.9c1.3-0.3,2.6,0.4,2.9,1.7c0.9,3.5,1.8,7,2.7,10.5
					c0.3,1.3-0.5,2.6-1.7,2.9C2169.3,940,2169.1,940,2168.9,940z M967.9,919.4c-0.2,0-0.4,0-0.7-0.1c-1.3-0.4-2-1.7-1.6-3
					c1-3.5,2-6.9,3.1-10.4c0.4-1.3,1.7-2,3-1.6s2,1.7,1.6,3c-1,3.4-2.1,6.9-3,10.3C969.9,918.7,969,919.4,967.9,919.4z
					 M2163.4,919.1c-1,0-2-0.7-2.3-1.7c-1-3.4-2-6.9-3-10.3c-0.4-1.3,0.3-2.6,1.6-3s2.6,0.3,3,1.6c1,3.4,2.1,6.9,3.1,10.4
					c0.4,1.3-0.4,2.6-1.6,3C2163.8,919.1,2163.6,919.1,2163.4,919.1z M974.2,898.7c-0.2,0-0.5,0-0.7-0.1c-1.3-0.4-1.9-1.8-1.5-3
					c1.1-3.4,2.3-6.9,3.4-10.3c0.4-1.2,1.8-1.9,3-1.5c1.3,0.4,1.9,1.8,1.5,3c-1.2,3.4-2.3,6.8-3.4,10.2
					C976.1,898.1,975.2,898.7,974.2,898.7z M2157.1,898.5c-1,0-1.9-0.6-2.3-1.7c-1.1-3.4-2.2-6.8-3.4-10.2c-0.4-1.2,0.2-2.6,1.5-3
					s2.6,0.2,3,1.5c1.2,3.4,2.3,6.8,3.4,10.3c0.4,1.3-0.3,2.6-1.5,3C2157.6,898.5,2157.3,898.5,2157.1,898.5z M981.2,878.3
					c-0.3,0-0.5,0-0.8-0.1c-1.2-0.4-1.9-1.8-1.4-3.1c1.2-3.4,2.5-6.8,3.8-10.2c0.5-1.2,1.9-1.9,3.1-1.4c1.2,0.5,1.9,1.9,1.4,3.1
					c-1.3,3.3-2.5,6.7-3.8,10.1C983.1,877.6,982.2,878.3,981.2,878.3z M2150.1,878.1c-1,0-1.9-0.6-2.3-1.6
					c-1.2-3.4-2.5-6.7-3.7-10.1c-0.5-1.2,0.1-2.6,1.4-3.1c1.2-0.5,2.6,0.1,3.1,1.4c1.3,3.3,2.6,6.8,3.8,10.1
					c0.5,1.2-0.2,2.6-1.4,3.1C2150.6,878.1,2150.4,878.1,2150.1,878.1z M988.9,858c-0.3,0-0.6-0.1-0.9-0.2c-1.2-0.5-1.8-1.9-1.3-3.1
					c1.3-3.3,2.7-6.7,4.1-10c0.5-1.2,1.9-1.8,3.1-1.3c1.2,0.5,1.8,1.9,1.3,3.1c-1.4,3.3-2.8,6.6-4.1,10
					C990.8,857.5,989.9,858,988.9,858z M2142.4,858c-0.9,0-1.8-0.6-2.2-1.5c-1.3-3.3-2.7-6.6-4.1-9.9c-0.5-1.2,0.1-2.6,1.3-3.1
					s2.6,0.1,3.1,1.3c1.4,3.3,2.8,6.7,4.1,10c0.5,1.2-0.1,2.6-1.3,3.1C2143,857.9,2142.7,858,2142.4,858z M2134,838.2
					c-0.9,0-1.8-0.5-2.2-1.4c-1.4-3.2-2.9-6.5-4.4-9.7c-0.6-1.2,0-2.6,1.2-3.2c1.2-0.6,2.6,0,3.2,1.2c1.5,3.3,3,6.6,4.5,9.8
					c0.5,1.2,0,2.6-1.2,3.2C2134.7,838.1,2134.3,838.2,2134,838.2z M997.3,838.1c-0.3,0-0.7-0.1-1-0.2c-1.2-0.5-1.8-1.9-1.2-3.2
					c1.5-3.3,3-6.6,4.5-9.9c0.6-1.2,2-1.7,3.2-1.2c1.2,0.6,1.7,2,1.2,3.2c-1.5,3.2-3,6.5-4.5,9.8
					C999.1,837.6,998.3,838.1,997.3,838.1z M2125,818.7c-0.9,0-1.7-0.5-2.2-1.3c-1.5-3.2-3.2-6.4-4.8-9.6c-0.6-1.2-0.1-2.6,1.1-3.2
					c1.2-0.6,2.6-0.1,3.2,1.1c1.6,3.2,3.2,6.5,4.8,9.7c0.6,1.2,0.1,2.6-1.1,3.2C2125.7,818.6,2125.3,818.7,2125,818.7z
					 M1006.5,818.5c-0.4,0-0.7-0.1-1-0.2c-1.2-0.6-1.7-2-1.1-3.2c1.6-3.2,3.2-6.5,4.8-9.7c0.6-1.2,2-1.6,3.2-1.1
					c1.2,0.6,1.6,2,1.1,3.2c-1.6,3.2-3.2,6.4-4.8,9.6C1008.2,818,1007.3,818.5,1006.5,818.5z M2115.2,799.5c-0.9,0-1.7-0.5-2.1-1.3
					c-1.7-3.1-3.4-6.3-5.1-9.4c-0.6-1.2-0.2-2.6,0.9-3.3c1.2-0.6,2.6-0.2,3.3,0.9c1.7,3.1,3.5,6.3,5.1,9.5c0.6,1.2,0.2,2.6-1,3.2
					C2116,799.4,2115.6,799.5,2115.2,799.5z M1016.2,799.2c-0.4,0-0.8-0.1-1.1-0.3c-1.2-0.6-1.6-2.1-1-3.2c1.7-3.2,3.4-6.4,5.2-9.5
					c0.6-1.2,2.1-1.6,3.3-0.9c1.2,0.6,1.6,2.1,0.9,3.3c-1.7,3.1-3.5,6.3-5.1,9.5C1017.9,798.8,1017.1,799.2,1016.2,799.2z
					 M2104.8,780.7c-0.8,0-1.6-0.4-2.1-1.2c-1.8-3.1-3.6-6.2-5.4-9.2c-0.7-1.1-0.3-2.6,0.8-3.3s2.6-0.3,3.3,0.8
					c1.8,3.1,3.7,6.2,5.5,9.3c0.7,1.1,0.3,2.6-0.9,3.3C2105.7,780.6,2105.3,780.7,2104.8,780.7z M1026.7,780.3
					c-0.4,0-0.8-0.1-1.2-0.3c-1.1-0.7-1.5-2.1-0.9-3.3c1.8-3.1,3.6-6.3,5.5-9.4c0.7-1.1,2.1-1.5,3.3-0.8c1.1,0.7,1.5,2.1,0.8,3.3
					c-1.8,3.1-3.7,6.2-5.4,9.3C1028.3,779.9,1027.5,780.3,1026.7,780.3z M2093.8,762.2c-0.8,0-1.6-0.4-2-1.1c-1.9-3-3.8-6.1-5.7-9.1
					c-0.7-1.1-0.4-2.6,0.7-3.3c1.1-0.7,2.6-0.4,3.3,0.7c2,3,3.9,6.1,5.8,9.1c0.7,1.1,0.4,2.6-0.8,3.3
					C2094.7,762.1,2094.2,762.2,2093.8,762.2z M1037.8,761.8c-0.4,0-0.9-0.1-1.3-0.4c-1.1-0.7-1.5-2.2-0.8-3.3
					c1.9-3,3.9-6.1,5.8-9.2c0.7-1.1,2.2-1.4,3.3-0.7c1.1,0.7,1.4,2.2,0.7,3.3c-1.9,3-3.9,6.1-5.8,9.1
					C1039.4,761.4,1038.6,761.8,1037.8,761.8z M2082.1,744.1c-0.8,0-1.5-0.4-2-1.1c-2-3-4-5.9-6.1-8.9c-0.8-1.1-0.5-2.6,0.6-3.3
					c1.1-0.8,2.6-0.5,3.3,0.6c2,2.9,4.1,5.9,6.1,8.9c0.7,1.1,0.4,2.6-0.7,3.3C2083,744,2082.6,744.1,2082.1,744.1z M1049.5,743.6
					c-0.5,0-0.9-0.1-1.3-0.4c-1.1-0.7-1.4-2.2-0.7-3.3c2-3,4.1-6,6.1-8.9c0.8-1.1,2.2-1.3,3.3-0.6c1.1,0.8,1.3,2.2,0.6,3.3
					c-2,2.9-4.1,5.9-6.1,8.9C1051.1,743.3,1050.3,743.6,1049.5,743.6z M2069.8,726.4c-0.7,0-1.5-0.3-1.9-1c-2.1-2.9-4.2-5.8-6.4-8.6
					c-0.8-1.1-0.6-2.6,0.5-3.3c1.1-0.8,2.6-0.6,3.3,0.5c2.1,2.9,4.3,5.8,6.4,8.7c0.8,1.1,0.5,2.6-0.5,3.3
					C2070.8,726.3,2070.3,726.4,2069.8,726.4z M1061.9,725.9c-0.5,0-1-0.1-1.4-0.5c-1.1-0.8-1.3-2.3-0.5-3.3
					c2.1-2.9,4.3-5.8,6.4-8.7c0.8-1.1,2.3-1.3,3.3-0.5c1.1,0.8,1.3,2.3,0.5,3.3c-2.2,2.9-4.3,5.8-6.4,8.7
					C1063.4,725.6,1062.6,725.9,1061.9,725.9z M2056.9,709.2c-0.7,0-1.4-0.3-1.9-0.9c-2.2-2.8-4.4-5.6-6.7-8.4
					c-0.8-1-0.7-2.5,0.4-3.4c1-0.8,2.5-0.7,3.4,0.4c2.2,2.8,4.5,5.7,6.7,8.5c0.8,1,0.6,2.5-0.4,3.4
					C2057.9,709,2057.4,709.2,2056.9,709.2z M1074.8,708.7c-0.5,0-1-0.2-1.5-0.5c-1-0.8-1.2-2.3-0.4-3.4c2.2-2.8,4.5-5.7,6.7-8.5
					c0.8-1,2.3-1.2,3.4-0.4c1,0.8,1.2,2.3,0.4,3.4c-2.2,2.8-4.5,5.6-6.7,8.4C1076.3,708.3,1075.5,708.7,1074.8,708.7z M2043.4,692.4
					c-0.7,0-1.4-0.3-1.8-0.9c-2.3-2.7-4.6-5.5-6.9-8.2c-0.9-1-0.8-2.5,0.2-3.4s2.5-0.8,3.4,0.2c2.3,2.7,4.7,5.5,7,8.3
					c0.8,1,0.7,2.5-0.3,3.4C2044.5,692.2,2044,692.4,2043.4,692.4z M1088.4,691.8c-0.5,0-1.1-0.2-1.5-0.6c-1-0.8-1.2-2.4-0.3-3.4
					c2.3-2.8,4.7-5.5,7-8.3c0.9-1,2.4-1.1,3.4-0.2c1,0.9,1.1,2.4,0.2,3.4c-2.3,2.7-4.7,5.5-7,8.2
					C1089.7,691.6,1089.1,691.8,1088.4,691.8z M2029.3,676.1c-0.7,0-1.3-0.3-1.8-0.8c-2.4-2.7-4.8-5.3-7.2-7.9
					c-0.9-1-0.8-2.5,0.1-3.4c1-0.9,2.5-0.8,3.4,0.1c2.4,2.6,4.9,5.3,7.3,8c0.9,1,0.8,2.5-0.2,3.4
					C2030.5,675.9,2029.9,676.1,2029.3,676.1z M1102.5,675.5c-0.6,0-1.1-0.2-1.6-0.6c-1-0.9-1.1-2.4-0.2-3.4c2.4-2.7,4.8-5.4,7.3-8
					c0.9-1,2.4-1,3.4-0.1s1,2.4,0.1,3.4c-2.4,2.6-4.9,5.3-7.2,7.9C1103.8,675.3,1103.1,675.5,1102.5,675.5z M2014.7,660.2
					c-0.6,0-1.3-0.2-1.7-0.7c-2.5-2.6-5-5.2-7.5-7.7c-0.9-0.9-0.9-2.5,0-3.4s2.5-0.9,3.4,0c2.5,2.5,5.1,5.1,7.5,7.8
					c0.9,1,0.9,2.5-0.1,3.4C2015.9,660,2015.3,660.2,2014.7,660.2z M1117.2,659.7c-0.6,0-1.2-0.2-1.7-0.7c-1-0.9-1-2.4-0.1-3.4
					c2.5-2.6,5-5.2,7.6-7.7c0.9-0.9,2.4-0.9,3.4,0c0.9,0.9,0.9,2.4,0,3.4c-2.5,2.5-5,5.1-7.5,7.7
					C1118.4,659.5,1117.8,659.7,1117.2,659.7z M1999.5,644.9c-0.6,0-1.2-0.2-1.7-0.7c-2.6-2.5-5.2-5-7.8-7.4c-1-0.9-1-2.4-0.1-3.4
					s2.4-1,3.4-0.1c2.6,2.5,5.2,5,7.8,7.5c0.9,0.9,1,2.4,0,3.4C2000.8,644.7,2000.1,644.9,1999.5,644.9z M1132.3,644.4
					c-0.6,0-1.2-0.2-1.7-0.7c-0.9-0.9-0.9-2.5,0-3.4c2.6-2.5,5.2-5,7.8-7.5c1-0.9,2.5-0.9,3.4,0.1s0.9,2.5-0.1,3.4
					c-2.6,2.4-5.2,4.9-7.8,7.4C1133.5,644.2,1132.9,644.4,1132.3,644.4z M1983.8,630.1c-0.6,0-1.2-0.2-1.6-0.6
					c-2.6-2.4-5.3-4.8-8-7.2c-1-0.9-1.1-2.4-0.2-3.4s2.4-1.1,3.4-0.2c2.7,2.4,5.4,4.8,8.1,7.2c1,0.9,1,2.4,0.2,3.4
					C1985.1,629.9,1984.5,630.1,1983.8,630.1z M1148.1,629.6c-0.7,0-1.3-0.3-1.8-0.8c-0.9-1-0.8-2.5,0.2-3.4
					c2.7-2.4,5.4-4.8,8.1-7.2c1-0.9,2.5-0.8,3.4,0.2s0.8,2.5-0.2,3.4c-2.7,2.3-5.4,4.7-8,7.1
					C1149.2,629.4,1148.6,629.6,1148.1,629.6z M1967.6,615.9c-0.5,0-1.1-0.2-1.5-0.6c-2.7-2.3-5.5-4.6-8.3-6.9
					c-1-0.8-1.2-2.3-0.3-3.4c0.8-1,2.3-1.2,3.4-0.3c2.8,2.3,5.6,4.6,8.3,6.9c1,0.9,1.1,2.4,0.3,3.4
					C1969,615.6,1968.3,615.9,1967.6,615.9z M1164.3,615.4c-0.7,0-1.4-0.3-1.8-0.8c-0.9-1-0.7-2.5,0.3-3.4c2.7-2.3,5.5-4.6,8.3-6.9
					c1-0.8,2.5-0.7,3.4,0.3c0.8,1,0.7,2.5-0.3,3.4c-2.8,2.3-5.5,4.6-8.2,6.9C1165.4,615.2,1164.8,615.4,1164.3,615.4z M1950.9,602.2
					c-0.5,0-1-0.2-1.5-0.5c-2.8-2.2-5.6-4.4-8.5-6.6c-1.1-0.8-1.3-2.3-0.5-3.4c0.8-1.1,2.3-1.3,3.4-0.5c2.9,2.2,5.8,4.4,8.6,6.6
					c1,0.8,1.2,2.3,0.4,3.4C1952.3,601.9,1951.6,602.2,1950.9,602.2z M1180.9,601.8c-0.7,0-1.4-0.3-1.9-0.9c-0.8-1-0.6-2.5,0.4-3.4
					c2.8-2.2,5.7-4.5,8.5-6.6c1.1-0.8,2.6-0.6,3.4,0.5s0.6,2.6-0.5,3.4c-2.8,2.2-5.7,4.4-8.5,6.6
					C1182,601.6,1181.5,601.8,1180.9,601.8z M1933.8,589.1c-0.5,0-1-0.2-1.4-0.5c-2.9-2.1-5.8-4.2-8.7-6.3c-1.1-0.8-1.3-2.3-0.6-3.3
					c0.8-1.1,2.3-1.3,3.3-0.6c2.9,2.1,5.9,4.2,8.8,6.3c1.1,0.8,1.3,2.3,0.5,3.3C1935.2,588.8,1934.5,589.1,1933.8,589.1z
					 M1198.1,588.7c-0.7,0-1.5-0.3-1.9-1c-0.8-1.1-0.6-2.6,0.5-3.3c2.9-2.1,5.8-4.3,8.8-6.3c1.1-0.8,2.6-0.5,3.3,0.6
					c0.8,1.1,0.5,2.6-0.6,3.3c-2.9,2.1-5.8,4.2-8.7,6.3C1199.1,588.6,1198.6,588.7,1198.1,588.7z M1916.2,576.6
					c-0.5,0-0.9-0.1-1.3-0.4c-3-2-6-4-8.9-6c-1.1-0.7-1.4-2.2-0.7-3.3c0.7-1.1,2.2-1.4,3.3-0.7c3,2,6,4,9,6c1.1,0.7,1.4,2.2,0.6,3.3
					C1917.7,576.2,1916.9,576.6,1916.2,576.6z M1215.7,576.3c-0.8,0-1.5-0.4-2-1c-0.7-1.1-0.5-2.6,0.6-3.3c3-2,6-4,9-6
					c1.1-0.7,2.6-0.4,3.3,0.7c0.7,1.1,0.4,2.6-0.7,3.3c-3,2-6,4-8.9,6C1216.6,576.1,1216.1,576.3,1215.7,576.3z M1898.1,564.7
					c-0.4,0-0.9-0.1-1.3-0.4c-3-1.9-6.1-3.8-9.1-5.7c-1.1-0.7-1.5-2.2-0.8-3.3s2.2-1.5,3.3-0.8c3.1,1.9,6.2,3.8,9.2,5.7
					c1.1,0.7,1.4,2.2,0.7,3.3C1899.7,564.3,1898.9,564.7,1898.1,564.7z M1233.6,564.4c-0.8,0-1.6-0.4-2-1.1
					c-0.7-1.1-0.4-2.6,0.7-3.3c3-1.9,6.1-3.8,9.2-5.7c1.1-0.7,2.6-0.3,3.3,0.8c0.7,1.1,0.3,2.6-0.8,3.3c-3,1.8-6.1,3.8-9.1,5.7
					C1234.5,564.3,1234.1,564.4,1233.6,564.4z M1879.7,553.5c-0.4,0-0.8-0.1-1.2-0.3c-3.1-1.8-6.2-3.6-9.3-5.4
					c-1.2-0.6-1.6-2.1-0.9-3.3c0.6-1.2,2.1-1.6,3.3-0.9c3.1,1.8,6.3,3.6,9.4,5.4c1.1,0.7,1.5,2.1,0.9,3.3
					C1881.3,553,1880.5,553.5,1879.7,553.5z M1252,553.2c-0.8,0-1.6-0.4-2.1-1.2c-0.7-1.1-0.3-2.6,0.9-3.3c3.1-1.8,6.2-3.6,9.4-5.4
					c1.2-0.6,2.6-0.2,3.3,0.9c0.6,1.2,0.2,2.6-0.9,3.3c-3.1,1.7-6.2,3.5-9.3,5.3C1252.8,553.1,1252.4,553.2,1252,553.2z
					 M1860.9,542.8c-0.4,0-0.8-0.1-1.1-0.3c-3.1-1.7-6.3-3.4-9.5-5c-1.2-0.6-1.6-2.1-1-3.2c0.6-1.2,2.1-1.6,3.2-1
					c3.2,1.7,6.4,3.4,9.6,5.1c1.2,0.6,1.6,2.1,1,3.2C1862.5,542.4,1861.7,542.8,1860.9,542.8z M1270.8,542.7c-0.9,0-1.7-0.5-2.1-1.3
					c-0.6-1.2-0.2-2.6,1-3.2c3.2-1.7,6.4-3.4,9.5-5c1.2-0.6,2.6-0.1,3.2,1c0.6,1.2,0.1,2.6-1,3.2c-3.2,1.6-6.3,3.3-9.5,5
					C1271.5,542.6,1271.2,542.7,1270.8,542.7z M1841.7,532.9c-0.4,0-0.7-0.1-1.1-0.2c-3.2-1.6-6.4-3.2-9.7-4.7
					c-1.2-0.6-1.7-2-1.1-3.2s2-1.7,3.2-1.1c3.3,1.6,6.5,3.1,9.8,4.7c1.2,0.6,1.7,2,1.1,3.2C1843.4,532.4,1842.6,532.9,1841.7,532.9z
					 M1289.9,532.8c-0.9,0-1.7-0.5-2.1-1.3c-0.6-1.2-0.1-2.6,1.1-3.2c3.2-1.6,6.5-3.2,9.7-4.7c1.2-0.6,2.6-0.1,3.2,1.1
					c0.6,1.2,0.1,2.6-1.1,3.2c-3.2,1.5-6.4,3.1-9.6,4.7C1290.6,532.7,1290.2,532.8,1289.9,532.8z M1822.1,523.6
					c-0.3,0-0.7-0.1-1-0.2c-3.2-1.5-6.6-2.9-9.8-4.4c-1.2-0.5-1.8-1.9-1.2-3.1c0.5-1.2,1.9-1.8,3.1-1.2c3.3,1.4,6.7,2.9,9.9,4.4
					c1.2,0.5,1.7,2,1.2,3.2C1823.9,523.1,1823.1,523.6,1822.1,523.6z M1309.3,523.6c-0.9,0-1.8-0.5-2.2-1.4c-0.5-1.2,0-2.6,1.2-3.2
					c3.3-1.5,6.6-2.9,9.9-4.4c1.2-0.5,2.6,0,3.1,1.2s0,2.6-1.2,3.1c-3.3,1.4-6.6,2.9-9.8,4.3
					C1309.9,523.5,1309.6,523.6,1309.3,523.6z M1329,515c-0.9,0-1.8-0.6-2.2-1.5c-0.5-1.2,0.1-2.6,1.3-3.1c3.3-1.4,6.7-2.7,10-4
					c1.2-0.5,2.6,0.1,3.1,1.4c0.5,1.2-0.1,2.6-1.4,3.1c-3.3,1.3-6.7,2.6-10,4C1329.6,515,1329.3,515,1329,515z M1802.3,515
					c-0.3,0-0.6-0.1-0.9-0.2c-3.3-1.4-6.7-2.7-10-4c-1.2-0.5-1.8-1.9-1.4-3.1c0.5-1.2,1.9-1.8,3.1-1.4c3.3,1.3,6.7,2.7,10.1,4
					c1.2,0.5,1.8,1.9,1.3,3.1C1804.1,514.5,1803.2,515,1802.3,515z M1349.1,507.2c-1,0-1.9-0.6-2.2-1.6c-0.5-1.2,0.2-2.6,1.4-3.1
					c3.4-1.3,6.8-2.5,10.2-3.7c1.2-0.4,2.6,0.2,3.1,1.5c0.4,1.2-0.2,2.6-1.5,3.1c-3.4,1.2-6.8,2.4-10.1,3.7
					C1349.6,507.1,1349.4,507.2,1349.1,507.2z M1782.1,507.1c-0.3,0-0.6,0-0.8-0.2c-3.3-1.2-6.8-2.5-10.1-3.7
					c-1.2-0.4-1.9-1.8-1.5-3.1c0.4-1.2,1.8-1.9,3.1-1.5c3.4,1.2,6.9,2.4,10.2,3.7c1.2,0.5,1.9,1.8,1.4,3.1
					C1784,506.5,1783.1,507.1,1782.1,507.1z M1369.4,500c-1,0-1.9-0.6-2.3-1.6c-0.4-1.3,0.3-2.6,1.5-3c3.4-1.1,6.9-2.3,10.3-3.3
					c1.3-0.4,2.6,0.3,3,1.6c0.4,1.3-0.3,2.6-1.6,3c-3.4,1.1-6.8,2.2-10.2,3.3C1369.9,500,1369.7,500,1369.4,500z M1761.7,499.9
					c-0.3,0-0.5,0-0.8-0.1c-3.4-1.1-6.8-2.2-10.3-3.3c-1.3-0.4-2-1.7-1.6-3s1.7-2,3-1.6c3.4,1.1,6.9,2.2,10.3,3.3
					c1.3,0.4,1.9,1.8,1.5,3C1763.7,499.3,1762.7,499.9,1761.7,499.9z M1390,493.6c-1,0-2-0.7-2.3-1.7c-0.4-1.3,0.4-2.6,1.6-3
					c3.4-1,7-2,10.4-3c1.3-0.3,2.6,0.4,2.9,1.7c0.4,1.3-0.4,2.6-1.7,2.9c-3.4,0.9-6.9,1.9-10.3,2.9
					C1390.5,493.5,1390.2,493.6,1390,493.6z M1741.1,493.5c-0.2,0-0.4,0-0.7-0.1c-3.4-1-6.9-2-10.3-2.9c-1.3-0.4-2-1.7-1.7-2.9
					c0.4-1.3,1.7-2,2.9-1.7c3.4,0.9,7,1.9,10.4,3c1.3,0.4,2,1.7,1.6,3C1743.1,492.8,1742.1,493.5,1741.1,493.5z M1410.8,487.8
					c-1.1,0-2-0.7-2.3-1.8c-0.3-1.3,0.4-2.6,1.7-2.9c3.5-0.9,7-1.8,10.5-2.6c1.3-0.3,2.6,0.5,2.9,1.8s-0.5,2.6-1.8,2.9
					c-3.5,0.8-7,1.7-10.4,2.6C1411.2,487.8,1411,487.8,1410.8,487.8z M1720.3,487.8c-0.2,0-0.4,0-0.6-0.1c-3.4-0.9-7-1.8-10.4-2.6
					c-1.3-0.3-2.1-1.6-1.8-2.9c0.3-1.3,1.6-2.1,2.9-1.8c3.5,0.8,7,1.7,10.5,2.6c1.3,0.3,2.1,1.6,1.7,2.9
					C1722.3,487.1,1721.4,487.8,1720.3,487.8z M1431.8,482.8c-1.1,0-2.1-0.8-2.3-1.9c-0.3-1.3,0.5-2.6,1.8-2.8
					c3.5-0.8,7.1-1.5,10.6-2.2c1.3-0.3,2.6,0.6,2.8,1.9c0.3,1.3-0.6,2.6-1.9,2.8c-3.5,0.7-7,1.4-10.5,2.2
					C1432.1,482.8,1432,482.8,1431.8,482.8z M1699.3,482.8c-0.2,0-0.3,0-0.5-0.1c-3.5-0.8-7-1.5-10.5-2.2c-1.3-0.3-2.1-1.5-1.9-2.8
					s1.5-2.1,2.8-1.9c3.5,0.7,7.1,1.5,10.6,2.2c1.3,0.3,2.1,1.6,1.8,2.8C1701.4,482,1700.4,482.8,1699.3,482.8z M1452.9,478.6
					c-1.1,0-2.1-0.8-2.4-2c-0.2-1.3,0.6-2.5,1.9-2.8c3.5-0.6,7.1-1.3,10.7-1.9c1.3-0.2,2.5,0.7,2.8,2c0.2,1.3-0.7,2.5-2,2.8
					c-3.5,0.6-7.1,1.2-10.6,1.8C1453.2,478.6,1453.1,478.6,1452.9,478.6z M1678.2,478.5c-0.1,0-0.3,0-0.4,0
					c-3.5-0.6-7.1-1.3-10.6-1.8c-1.3-0.2-2.2-1.4-2-2.7c0.2-1.3,1.4-2.2,2.8-2c3.5,0.6,7.1,1.2,10.7,1.9c1.3,0.2,2.2,1.5,1.9,2.8
					C1680.3,477.7,1679.3,478.5,1678.2,478.5z M1474.2,475.1c-1.2,0-2.2-0.9-2.4-2c-0.2-1.3,0.7-2.5,2-2.7c3.5-0.5,7.1-1,10.7-1.5
					c1.3-0.2,2.5,0.8,2.7,2.1c0.2,1.3-0.8,2.5-2.1,2.7c-3.6,0.5-7.1,1-10.6,1.5C1474.5,475.1,1474.3,475.1,1474.2,475.1z
					 M1656.9,475c-0.1,0-0.2,0-0.4,0c-3.5-0.5-7.1-1-10.6-1.5c-1.3-0.2-2.2-1.4-2.1-2.7c0.2-1.3,1.4-2.2,2.7-2.1
					c3.6,0.5,7.2,1,10.7,1.5c1.3,0.2,2.2,1.4,2,2.7C1659.1,474.2,1658,475,1656.9,475z M1495.6,472.3c-1.2,0-2.2-0.9-2.4-2.1
					c-0.1-1.3,0.8-2.5,2.1-2.6c3.6-0.4,7.2-0.8,10.8-1.1c1.3-0.1,2.5,0.8,2.6,2.2c0.1,1.3-0.8,2.5-2.2,2.6
					c-3.6,0.3-7.2,0.7-10.7,1.1C1495.8,472.3,1495.7,472.3,1495.6,472.3z M1635.5,472.3c-0.1,0-0.2,0-0.3,0
					c-3.5-0.4-7.1-0.8-10.7-1.1c-1.3-0.1-2.3-1.3-2.2-2.6c0.1-1.3,1.3-2.3,2.6-2.2c3.6,0.3,7.2,0.7,10.8,1.1
					c1.3,0.1,2.3,1.3,2.1,2.6C1637.7,471.4,1636.7,472.3,1635.5,472.3z M1517.1,470.3c-1.2,0-2.3-1-2.4-2.2
					c-0.1-1.3,0.9-2.5,2.2-2.6c3.6-0.3,7.2-0.5,10.8-0.7c1.3-0.1,2.5,0.9,2.5,2.2c0.1,1.3-0.9,2.5-2.2,2.5
					c-3.6,0.2-7.2,0.5-10.7,0.7C1517.2,470.3,1517.1,470.3,1517.1,470.3z M1614,470.2c-0.1,0-0.1,0-0.2,0c-3.5-0.3-7.1-0.5-10.7-0.7
					c-1.3-0.1-2.3-1.2-2.2-2.5c0.1-1.3,1.2-2.3,2.5-2.2c3.6,0.2,7.2,0.5,10.8,0.7c1.3,0.1,2.3,1.3,2.2,2.6
					C1616.3,469.3,1615.3,470.2,1614,470.2z M1538.6,469c-1.3,0-2.3-1-2.4-2.3s1-2.4,2.3-2.5c3.6-0.2,7.2-0.3,10.8-0.4
					c1.3,0,2.4,1,2.5,2.3c0,1.3-1,2.4-2.3,2.5c-3.6,0.1-7.2,0.2-10.7,0.4C1538.7,469,1538.6,469,1538.6,469z M1592.5,469L1592.5,469
					c-3.7-0.2-7.3-0.3-10.8-0.4c-1.3,0-2.4-1.1-2.3-2.5c0-1.3,1.1-2.3,2.5-2.3c3.6,0.1,7.2,0.2,10.8,0.4c1.3,0.1,2.3,1.2,2.3,2.5
					C1594.8,467.9,1593.8,469,1592.5,469z M1560.1,468.4c-1.3,0-2.4-1.1-2.4-2.4s1-2.4,2.4-2.4c1.8,0,3.7,0,5.6,0c1.8,0,3.5,0,5.3,0
					c1.3,0,2.4,1.1,2.4,2.4s-1.1,2.3-2.4,2.4c-1.8,0-3.6,0-5.4,0C1563.7,468.4,1561.9,468.4,1560.1,468.4
					C1560.2,468.4,1560.1,468.4,1560.1,468.4z"/>
			</g>
			<circle class="st7" cx="1284.5" cy="533.8" r="28"/>
		</g>
		<g>
			<path class="st8" d="M1565.7,1594.7c-68.5,0-134.9-13.4-197.5-39.9c-60.4-25.6-114.7-62.1-161.3-108.7
				c-46.6-46.6-83.2-100.8-108.7-161.3c-26.5-62.6-39.9-129-39.9-197.5s13.4-134.9,39.9-197.5c25.6-60.4,62.1-114.7,108.7-161.3
				s100.8-83.2,161.3-108.7c62.6-26.5,129-39.9,197.5-39.9s134.9,13.4,197.5,39.9c60.4,25.6,114.7,62.1,161.3,108.7
				c46.6,46.6,83.2,100.8,108.7,161.3c26.5,62.6,39.9,129,39.9,197.5s-13.4,134.9-39.9,197.5c-25.6,60.4-62.1,114.7-108.7,161.3
				c-46.6,46.6-100.8,83.2-161.3,108.7C1700.6,1581.3,1634.2,1594.7,1565.7,1594.7z M1565.7,600.2c-65.8,0-129.6,12.9-189.6,38.3
				c-58,24.5-110.1,59.7-154.9,104.4c-44.7,44.7-79.9,96.9-104.4,154.9c-25.4,60.1-38.3,123.9-38.3,189.6
				c0,65.8,12.9,129.6,38.3,189.6c24.5,58,59.7,110.1,104.4,154.9c44.7,44.7,96.9,79.9,154.9,104.4c60.1,25.4,123.9,38.3,189.6,38.3
				c65.8,0,129.6-12.9,189.6-38.3c58-24.5,110.1-59.7,154.9-104.4c44.7-44.7,79.9-96.9,104.4-154.9c25.4-60.1,38.3-123.9,38.3-189.6
				c0-65.8-12.9-129.6-38.3-189.6c-24.5-58-59.7-110.1-104.4-154.9c-44.7-44.7-96.9-79.9-154.9-104.4
				C1695.3,613.1,1631.4,600.2,1565.7,600.2z"/>
		</g>
		<rect x="1496.3" y="549.4" class="st8" width="132.4" height="44.5"/>
		<rect x="1551.8" y="507.3" class="st8" width="21.3" height="50.5"/>
		<g>
			<path class="st8" d="M1562.5,519.3c-22.7,0-41.2-18.5-41.2-41.2s18.5-41.2,41.2-41.2s41.2,18.5,41.2,41.2
				S1585.2,519.3,1562.5,519.3z M1562.5,454.6c-12.9,0-23.5,10.5-23.5,23.5s10.5,23.5,23.5,23.5c12.9,0,23.5-10.5,23.5-23.5
				S1575.4,454.6,1562.5,454.6z"/>
		</g>
		<g>
			<path class="st9" d="M1808.9,1092.3c0,14.4-1.3,28.5-3.8,42.2c-6,32.9-18.8,63.4-37,89.9c-42.2,61.7-113.2,102.2-193.6,102.2
				c-95.7,0-177.9-57.3-214.4-139.5c-4.8-10.8-8.8-22.1-11.9-33.7c-5.3-19.5-8.1-40-8.1-61.2c0-17.1,1.8-33.8,5.3-49.9
				c0-0.2,0.1-0.4,0.1-0.5c9.7-44.4,32.1-84.1,63.1-115.2c8.8-8.8,18.3-16.9,28.4-24.3c4.8-3.5,9.8-6.8,14.9-9.9
				c35.7-21.9,77.6-34.6,122.6-34.6c6,0,11.9,0.2,17.7,0.7c8.3,0.6,16.4,1.6,24.4,3.1c33.6,6.1,64.7,19.4,91.7,38.2l0,0
				c16.8,11.7,32,25.5,45.2,41.2c6.9,8.2,13.3,16.9,19.1,26c3.6,5.7,6.9,11.5,10.1,17.5c7.5,14.4,13.5,29.6,17.9,45.6
				C1805.9,1049.9,1808.9,1070.8,1808.9,1092.3z"/>
			<g>
				<path class="st10" d="M1494.9,987.4c-9.4,14.8,3.9,40.5-24.2,33.5s-45.2-10.1-46.8,5.4c-1.6,15.6,21,15.6,21,32
					s-10.1,21.8-25.7,14s-20.1-19.1-38.2-12.1s-28.6,2.3-32.7-11.7c-0.7-2.5-1.7-4.5-2.9-6.1c0-0.2,0.1-0.4,0.1-0.5
					c9.7-44.4,32.1-84.1,63.1-115.2c8.8-8.8,18.3-16.9,28.4-24.3c4.8-3.5,9.8-6.8,14.9-9.9c7.3,0.3,16,3,23.5,12.3
					c16.4,20.3,27.3,10.1,23.4,33.5s2.3,26.5,15.6,25.7c13.2-0.8,28.8-0.8,30.4,9.4C1546.3,983.5,1504.2,972.6,1494.9,987.4z"/>
				<path class="st10" d="M1624.4,1113.3c0,0-16.3,5.2-20.6-6.2s0.6-13.8-13.8-17.2s-15.7-13.2-24.9-12c-9.2,1.2-4.6,4.9-15.4,12.9
					s-20.6,4.3-20.3,19.1s16.3,17.1,19.5,26.8c3.2,9.7-2.3,13.8,4.6,21.2s19.8,4.2,13.8,14.3s-15.2,18-10.6,33.7s1.4,16.6,9.2,27.7
					c7.8,11.1,23.1,14.8,25.4,7.4s-10.6-17.1-6.5-24.5c4.2-7.4,11.1-2.3,13.8-13.4s14-11.1,14.9-18.8s-13.5-19.4-8-24.3
					s16.6,8.9,25.2-3.4s2.8-22.1,11.7-33.8S1630.6,1106.5,1624.4,1113.3z"/>
				<path class="st10" d="M1808.9,1092.3c0,14.4-1.3,28.5-3.8,42.2c-6,32.9-18.8,63.4-37,89.9c-6.2,2-12.5,2-18.7-0.5
					c-29.2-11.7-7.6-43.3,4.1-59c11.7-15.8-18.1-8.8-39.7-23.4s2.3-53.8-19.9-47.3s-49.1,14.6-62-7s11.7-25.1,0.6-43.3
					c-11.1-18.1,6.4-28.6,28.6-30.4c22.2-1.8,19.3-17.5,46.8-19.9c27.5-2.3,26.9,32.7,57.3,30.4s29,4.7,29,4.7
					c2.2-0.1,4.3,0.4,6.3,1.3C1805.9,1049.9,1808.9,1070.8,1808.9,1092.3z"/>
				<path class="st10" d="M1782.6,984.5c-25.3,12.3-35.4-21.1-57-11.1c-21.8,10.1-18-9.4-35.1-21.8c-17.2-12.5-51.4,10.1-49.9-9.4
					c1.6-19.5,27.3-14,32.7-29.6c5.5-15.6,30.4-11.7,30.4-11.7c1.4-0.5,2.9-0.9,4.5-1l0,0c16.8,11.7,32,25.5,45.2,41.2
					c6.9,8.2,13.3,16.9,19.1,26C1776.2,972.7,1779.5,978.5,1782.6,984.5z"/>
				<path class="st10" d="M1569.7,917.3c0,0,13.3-19.1-7.8-24.8c-21-5.6-20.7,1.7-37,0c-16.4-1.7-22.8,10.9-10.5,24.8
					c12.3,13.8,22.2,40.4,33.3,26.2C1558.8,929.4,1556.6,918.6,1569.7,917.3z"/>
			</g>
		</g>
		<g>
			<g>
				<path class="st8" d="M1566.7,1104.6l-3.4,0.1c-6,0.1-10.9-4.5-10.8-10.2l1.6-300.3c0-3.4,2.9-6.1,6.4-6.2l0,0
					c3.5-0.1,6.5,2.6,6.6,6l9.6,300.8C1576.8,1100,1572.3,1104.5,1566.7,1104.6z"/>
			</g>
			<g>
				<path class="st11" d="M1565.3,1104.6l-0.4-0.3c-0.6-0.4,1.6-4.9,5-9.8l178.2-260.1c2-2.9,3.9-5,4.3-4.8l0,0
					c0.4,0.3-0.9,2.8-2.9,5.8l-177.4,261.4C1569,1101.6,1565.9,1105,1565.3,1104.6z"/>
			</g>
			<g>
				<path class="st8" d="M1546.2,1095.8l1.2-3.2c2.1-5.6,9.1-8.1,15.6-5.5l339.2,135c3.8,1.5,5.8,5.4,4.6,8.7l0,0
					c-1.3,3.3-5.4,4.9-9.2,3.5l-343.9-124.7C1547.6,1107.2,1544.2,1101.1,1546.2,1095.8z"/>
			</g>
			
				<ellipse transform="matrix(0.9999 -1.649743e-02 1.649743e-02 0.9999 -17.8079 25.9598)" class="st7" cx="1564.6" cy="1092.3" rx="52.4" ry="52.4"/>
		</g>
	</g>
	<path class="st2" d="M2239.9,1176.7c0,0,14.5-27.7,49.2-24.6c0,0,50.3-46.2,104-6.2c0,0,57-9.9,99.3,8.6
		c28.2,12.3,37.5,25.3,37.5,25.3L2239.9,1176.7z"/>
	<path class="st2" d="M1612.2,283.6c0,0,12.4-28.7,42-25.5c0,0,43-47.8,88.8-6.4c0,0,48.7-10.3,84.7,8.9c24,12.8,32,26.2,32,26.2
		L1612.2,283.6z"/>
	<path class="st12" d="M471.1,1434.6c0,0,27.6-47.9,93.6-42.5c0,0,95.9-79.8,198.1-10.6c0,0,108.7-17.1,189.1,14.8
		c53.7,21.3,71.4,43.7,71.4,43.7L471.1,1434.6z"/>
	<path class="st13" d="M722.9,1181.4c0,0,15.5-28.7,52.5-25.5c0,0,53.8-47.8,111.1-6.4c0,0,61-10.3,106.1,8.9
		c30.1,12.8,40,26.2,40,26.2L722.9,1181.4z"/>
	<path class="st13" d="M298,1296.1c0,0,15.5-28.7,52.5-25.5c0,0,53.8-47.8,111.1-6.4c0,0,61-10.3,106.1,8.9
		c30.1,12.8,40,26.2,40,26.2L298,1296.1z"/>
	<path class="st13" d="M674.2,1016.5c0,0,10.2-21.6,34.5-19.2c0,0,35.3-36.1,73-4.8c0,0,40.1-7.7,69.7,6.7
		c19.8,9.6,26.3,19.7,26.3,19.7L674.2,1016.5z"/>
	<path class="st14" d="M811.1,1276.7c-10.5,9.9-23.1,18.1-37.3,23.9c-61.7,25-132.1-4.7-157.1-66.4c-25-61.7,4.7-132.1,66.4-157.1
		c14.2-5.8,28.9-8.6,43.3-8.9c-53.7,25.4-78.8,88.5-56.2,144.2C692.8,1268.1,754.9,1296,811.1,1276.7z"/>
	<g>
		<g>
			<path class="st15" d="M2495.6,1685.7c10,4.1,45.8,0.8,47-2.1s-22.3-30.1-32.3-34.2s-21.4,0.8-25.5,10.8
				C2480.8,1670.2,2485.6,1681.6,2495.6,1685.7z"/>
			<path class="st15" d="M2586,1702.8c-5.6,9.2-8.2,45.1-5.5,46.7c2.6,1.6,33.3-17.1,39-26.3s2.7-21.3-6.5-26.9
				C2603.6,1690.6,2591.6,1693.6,2586,1702.8z"/>
			<path class="st15" d="M2537.7,1773c10.3,3.3,45.8-2.7,46.7-5.7s-24.5-28.4-34.8-31.7s-21.3,2.4-24.6,12.7
				C2521.7,1758.7,2527.4,1769.7,2537.7,1773z"/>
			<g>
				<path class="st15" d="M2589.8,1807.7c0-0.8-4-82-48.4-123.9l0.9-1c44.9,42.3,48.8,124,48.9,124.8L2589.8,1807.7z"/>
			</g>
		</g>
		<g>
			<path class="st15" d="M2738.2,1687.4c-6.2,4.1-31,6.9-32.2,5.1s10.9-23.5,17.2-27.7c6.2-4.1,14.7-2.4,18.8,3.8
				C2746.1,1674.9,2744.4,1683.3,2738.2,1687.4z"/>
			<path class="st15" d="M2679.2,1711.5c5.1,5.5,11.8,29.5,10.2,30.9c-1.6,1.5-25-7-30.1-12.5s-4.8-14.1,0.7-19.2
				C2665.6,1705.7,2674.1,1706.1,2679.2,1711.5z"/>
			<path class="st15" d="M2721.7,1752.5c-6.5,3.7-31.4,4.5-32.5,2.6s12.7-22.6,19.2-26.3c6.5-3.7,14.8-1.3,18.5,5.2
				C2730.6,1740.6,2728.3,1748.9,2721.7,1752.5z"/>
			<g>
				<path class="st15" d="M2691.1,1783.3c-0.1-0.6-8.6-56.2,15.7-90.8l-0.8-0.5c-24.6,34.9-16,91-15.9,91.5L2691.1,1783.3z"/>
			</g>
		</g>
		<g>
			<g>
				<path class="st15" d="M2647.1,1803l-2.8-0.5c-11.1-144.1-55.1-247.5-55.8-248.9l2.6-1.1C2591.7,1553.9,2636,1658,2647.1,1803z"
					/>
			</g>
			<g>
				<path class="st6" d="M2558.7,1539.1c5.4,6.1,30.8,16,32.6,14.5s-4.9-28-10.3-34.1s-14.8-6.7-21-1.3
					C2553.8,1523.6,2553.2,1532.9,2558.7,1539.1z"/>
				<path class="st6" d="M2597.6,1517.7c-4.9,6.6-9.4,33.5-7.5,34.9s26.4-10.6,31.3-17.1s3.5-15.9-3-20.8
					C2611.8,1509.7,2602.5,1511.1,2597.6,1517.7z"/>
				<path class="st6" d="M2626.8,1546.3c-7.9-2.2-34.6,3.5-35.2,5.8c-0.6,2.3,19.5,20.7,27.4,22.9s16.1-2.5,18.2-10.4
					C2639.4,1556.6,2634.8,1548.4,2626.8,1546.3z"/>
				<path class="st6" d="M2608.8,1581.9c-0.8-8.2-15.6-31.1-17.9-30.8c-2.3,0.2-12.4,25.5-11.7,33.7c0.8,8.2,8,14.1,16.2,13.3
					S2609.6,1590.1,2608.8,1581.9z"/>
				<path class="st6" d="M2568.4,1580.2c7.3-3.8,22.9-26.1,21.8-28.2s-28.4-1.9-35.6,1.9c-7.3,3.8-10.1,12.8-6.2,20
					S2561.1,1584,2568.4,1580.2z"/>
				
					<ellipse transform="matrix(0.1574 -0.9875 0.9875 0.1574 649.7183 3865.5659)" class="st9" cx="2590.1" cy="1552" rx="4.9" ry="4.9"/>
			</g>
			<path class="st15" d="M2646.3,1655.6c-8.1,9.9-16.8,51.5-13.9,53.8s41.8-14.7,49.9-24.6s6.6-24.5-3.4-32.6
				S2654.4,1645.7,2646.3,1655.6z"/>
		</g>
		<g>
			<g>
				<path class="st15" d="M2486.6,1817.7l-1.9-0.1c-20-94.6-58.3-159.4-58.8-160.3l1.6-1C2428,1657.3,2466.5,1722.5,2486.6,1817.7z"
					/>
			</g>
			<g>
				<path class="st9" d="M2404.8,1650.4c4.1,3.6,21.9,7.9,22.9,6.8s-5.7-18.1-9.8-21.7s-10.4-3.2-14,1
					C2400.2,1640.5,2400.6,1646.8,2404.8,1650.4z"/>
				<path class="st9" d="M2428.7,1632.7c-2.7,4.8-3.3,23-1.9,23.8c1.4,0.8,16.6-9.3,19.3-14.1c2.7-4.8,1-10.8-3.8-13.5
					C2437.5,1626.2,2431.4,1627.9,2428.7,1632.7z"/>
				<path class="st9" d="M2450.6,1649.1c-5.4-0.7-22.6,5.4-22.8,6.9c-0.2,1.6,14.7,12,20.2,12.8c5.4,0.7,10.4-3.1,11.2-8.5
					C2459.9,1654.9,2456.1,1649.9,2450.6,1649.1z"/>
				<path class="st9" d="M2441.8,1674.4c-1.2-5.3-13.1-19.3-14.6-18.9s-6,18-4.8,23.4c1.2,5.3,6.6,8.7,11.9,7.4
					C2439.7,1685.1,2443.1,1679.7,2441.8,1674.4z"/>
				<path class="st9" d="M2414.8,1676.8c4.5-3.2,12.9-19.4,12-20.6s-19,1.2-23.5,4.4c-4.5,3.2-5.5,9.4-2.4,13.8
					S2410.3,1679.9,2414.8,1676.8z"/>
				
					<ellipse transform="matrix(2.655504e-02 -0.9996 0.9996 2.655504e-02 706.5804 4038.1267)" class="st16" cx="2426.7" cy="1656.3" rx="3.3" ry="3.3"/>
			</g>
			<path class="st15" d="M2473.1,1720c-4.5,7.3-6.6,35.7-4.5,37s26.4-13.4,30.9-20.7c4.5-7.3,2.2-16.8-5.1-21.3
				C2487.2,1710.4,2477.6,1712.7,2473.1,1720z"/>
		</g>
		<path class="st15" d="M2426.8,1827.6c0,0,10.6-28.7,49.2-30.5s65.1,21.7,96.9,10.8c31.8-10.8,84.5-35.3,134.4-19
			s58.3,38.7,58.3,38.7H2426.8z"/>
	</g>
	<g>
		<g>
			<g>
				<path class="st15" d="M1911.1,1817.8l-2.3-0.4c-9.1-118.1-45.2-202.9-45.7-204l2.1-0.9C1865.7,1613.7,1902,1699,1911.1,1817.8z"
					/>
			</g>
			<g>
				<path class="st6" d="M1838.6,1601.5c4.4,5,25.3,13.1,26.7,11.9c1.4-1.3-4-22.9-8.5-28c-4.4-5-12.1-5.5-17.2-1.1
					C1834.6,1588.8,1834.1,1596.5,1838.6,1601.5z"/>
				<path class="st6" d="M1870.5,1584c-4,5.4-7.7,27.4-6.1,28.6s21.6-8.7,25.6-14c4-5.4,2.9-13-2.5-17
					C1882.1,1577.5,1874.5,1578.6,1870.5,1584z"/>
				<path class="st6" d="M1894.5,1607.4c-6.5-1.8-28.3,2.9-28.8,4.8s16,17,22.4,18.7c6.5,1.8,13.2-2.1,14.9-8.5
					C1904.8,1615.9,1900.9,1609.2,1894.5,1607.4z"/>
				<path class="st6" d="M1879.7,1636.6c-0.6-6.7-12.8-25.5-14.7-25.3s-10.2,20.9-9.6,27.6s6.6,11.6,13.3,10.9
					C1875.4,1649.3,1880.3,1643.3,1879.7,1636.6z"/>
				<path class="st6" d="M1846.5,1635.2c6-3.1,18.8-21.4,17.9-23.1s-23.2-1.5-29.2,1.6s-8.2,10.5-5.1,16.4
					C1833.2,1636,1840.6,1638.3,1846.5,1635.2z"/>
			</g>
			
				<ellipse transform="matrix(0.1573 -0.9876 0.9876 0.1573 -20.684 3199.7693)" class="st11" cx="1864.5" cy="1612" rx="4" ry="4"/>
			<path class="st15" d="M1900.2,1646.2c-6.6,8.1-13.7,42.2-11.4,44.1c2.3,1.9,34.3-12.1,40.9-20.2s5.4-20.1-2.8-26.7
				C1918.7,1636.8,1906.8,1638,1900.2,1646.2z"/>
			<path class="st15" d="M1883.9,1744.1c6.9,3.3,22,23.7,21.1,25.7c-1,2-26.4,2.5-33.2-0.8s-9.7-11.6-6.4-18.5
				C1868.7,1743.7,1877,1740.8,1883.9,1744.1z"/>
		</g>
		<g>
			<g>
				<path class="st15" d="M1977.2,1817.8l2.7-0.4c10.5-135.6,51.9-232.9,52.5-234.2l-2.4-1
					C2029.4,1583.4,1987.7,1681.4,1977.2,1817.8z"/>
			</g>
			<g>
				<path class="st6" d="M2060.5,1569.5c-5.1,5.8-29,15.1-30.7,13.6s4.6-26.3,9.7-32.1c5.1-5.8,13.9-6.3,19.7-1.2
					C2065,1554.9,2065.6,1563.7,2060.5,1569.5z"/>
				<path class="st6" d="M2023.8,1549.3c4.6,6.2,8.8,31.5,7,32.8s-24.8-9.9-29.4-16.1s-3.3-14.9,2.9-19.6
					C2010.5,1541.9,2019.2,1543.1,2023.8,1549.3z"/>
				<path class="st6" d="M1996.3,1576.2c7.4-2,32.5,3.3,33.1,5.5s-18.3,19.5-25.8,21.5c-7.4,2-15.1-2.4-17.2-9.8
					C1984.5,1586,1988.9,1578.3,1996.3,1576.2z"/>
				<path class="st6" d="M2013.3,1609.8c0.7-7.7,14.6-29.2,16.8-29s11.7,24,11,31.7s-7.6,13.3-15.3,12.6
					C2018.2,1624.3,2012.5,1617.5,2013.3,1609.8z"/>
				<path class="st6" d="M2051.3,1608.2c-6.8-3.6-21.5-24.6-20.5-26.6s26.7-1.8,33.5,1.8c6.8,3.6,9.5,12,5.9,18.9
					C2066.6,1609.1,2058.2,1611.7,2051.3,1608.2z"/>
				
					<ellipse transform="matrix(0.9876 -0.1573 0.1573 0.9876 -223.5021 339.1353)" class="st16" cx="2030.9" cy="1581.7" rx="4.6" ry="4.6"/>
			</g>
			<path class="st15" d="M1978,1679.2c7.6,9.3,15.8,48.5,13.1,50.7s-39.3-13.8-46.9-23.2c-7.6-9.3-6.2-23.1,3.2-30.7
				C1956.7,1668.4,1970.4,1669.8,1978,1679.2z"/>
			<path class="st15" d="M2008.4,1733.2c-7.9,3.8-25.3,27.2-24.2,29.5c1.1,2.3,30.3,2.9,38.1-0.9c7.9-3.8,11.2-13.4,7.3-21.2
				C2025.8,1732.7,2016.3,1729.4,2008.4,1733.2z"/>
		</g>
		<path class="st15" d="M1855.4,1828.8c0,0,32.4-42.8,78.4-27.1c46.1,15.7,107.4,1.4,107.3,22.9L1855.4,1828.8z"/>
	</g>
	<g>
		<path class="st17" d="M2267,1397c0,0,3.4,5.9,1.2,12.3c-5.4,15.9-5.3,22,4.2,29.1c0,0,13.1,6.5,11.4-0.8
			c-0.8-3.2-0.7-8.8,0.9-13.1c4-11.5,4.1-17.2-2-25.3l-2.7-4.1L2267,1397z"/>
		<path class="st17" d="M2271.3,1408.6c0,0-2.9,0.5-3.8,2.6c-2.8,6.6-9.3,12.3-8.3,13.4c2,2.2,6.5-2.1,9.2-6.3
			C2271.2,1414.1,2271.3,1408.6,2271.3,1408.6z"/>
		<path class="st18" d="M2122.8,1224.2c-1.9-24.1,24.3-40.6,44.9-28.1c0.4,0.3,0.8,0.5,1.3,0.8c30.9,19.9,97.7,112.8,102.2,122.1
			c4.6,9.3,18.1,83.3,18.1,83.3s-16.8,6.1-24.6-0.2c0,0-27.2-70.2-31.2-73.7s-108.7-62.2-109.6-84.2
			C2123.8,1238.3,2123.4,1231.3,2122.8,1224.2z"/>
		<path class="st16" d="M2309.5,1767.9c0,0,12.5,11.4,10,19.5c-2.4,8.1-13.7,13.5-15.2,23.4s-7.6,15.3-13.1,15.3s-26.1,0-26.1,0
			s-4-7,5.7-9.1s13.4-13.7,12.8-24.5c-0.6-10.8,0.9-25.2,0.9-25.2l20.7-4.8L2309.5,1767.9z"/>
		<path class="st16" d="M2156.6,1797.3c0,0,2.2,25.9-3.2,28.6l-70.1-0.1c0,0,0-8.1,11.3-9.9s31-8.4,34.4-23.1
			C2132.2,1778.1,2156.6,1797.3,2156.6,1797.3z"/>
		<path class="st6" d="M2097.4,1431.5c0,0,3.7,45.4,8,100c5.9,74.1,13,165.2,13.7,182.4c1.2,30,6.1,77.9,6.1,77.9
			s11.6,11.4,34.7,6.6c0,0,20.6-68.4,26.5-140.8c0.1-1.2,0.2-2.4,0.3-3.6c5.5-73.7,14-228.8,14-228.8L2097.4,1431.5z"/>
		<path class="st19" d="M2097.4,1431.5c0,0,3.7,45.4,8,100l80.9,126.1c0.1-1.2,0.2-2.4,0.3-3.6c5.5-73.7,14-228.8,14-228.8
			L2097.4,1431.5z"/>
		<path class="st6" d="M2114.3,1436.9c0,0,66.6,164.4,110.4,241.7c43.8,77.3,57.5,98.8,57.5,98.8s25.1-9.9,27.4-16.6
			c0,0-16.7-149.2-46.1-185.5c-16.6-20.5-30.6-79.4-32.9-100.8c-2.7-25-9.9-67.1-9.9-67.1L2114.3,1436.9z"/>
		<path class="st17" d="M2171.7,1190.3c0,0-44.6,22.6-70.8,15.1c0,0,4-5.2,11.2-10.5c3.7-2.7,5.4-7.2,4.7-11.7
			c-0.3-2.1-0.6-4-0.9-5.8c-1.3-8.8-1.4-13.8-1.4-13.8l17.1-14l16.2-13.4C2147.4,1172.9,2171.7,1190.3,2171.7,1190.3z"/>
		<path class="st20" d="M2216,1420.2c-18,10.9-35.1,19.1-55,23.7c-23.5,5.6-52.5,3.9-62.2,5.4c-1,0.1-1.9-0.1-2.8-0.7
			c-0.8-0.4-5-29.1-9.3-65.4c-0.2-1.5-0.4-2.9-0.5-4.4l-0.1-0.5c-1.7-14.2-3.1-29.1-4.4-44c-1-11.6-1.9-23.1-2.5-33.9
			c-0.7-13.5-1-25.9-0.7-36.1c0.1-4.7,0.4-8.8,0.8-12.5c2.6-21.2,12.7-36.3,22.2-47.6l9.4-8.9c9.1,0.6,17-1.2,25.8-7
			c9.6-6.3,20-13.2,22-12c14.8,8.1,26.8,29,35.4,56.7c4.9,15.9,8.7,34,11.1,53.1c0.8,5.9,1.4,12,1.9,18.1c0.1,1.1,0.2,2.2,0.3,3.3
			c1.2,16.6,3,32.1,5.1,46c2.8,18.7,6,34.4,8.3,45.4c1.1,5.6,2,10,2.5,13.1C2223.9,1414.8,2218.5,1418.7,2216,1420.2z"/>
		<path class="st9" d="M2216.2,1420.3c-18,10.9-35.1,19.1-55,23.7c-23.5,5.6-52.5,3.9-62.2,5.4c-1,0.1-1.9-0.1-2.8-0.7
			c-0.8-0.4-5-29.1-9.3-65.4c-0.2-1.5-0.4-2.9-0.5-4.4l-0.1-0.5c-1.7-14.2-3.1-29.1-4.4-44c-1-11.6-1.9-23.1-2.5-33.9
			c-0.7-13.5-1.1-25.9-0.7-36.1c0.1-4.7,0.4-8.8,0.8-12.5c2.6-21.2,11.8-37.6,21.9-48.3c2.2-2.4,9.6-8.2,9.6-8.2
			c9.1,0.6,17-1.2,25.8-7c9.6-6.3,20-13.2,22-12c14.8,8.1,26.8,29,35.4,56.7c4.9,15.9,8.7,34,11.1,53.1c0.8,5.9,1.4,12,1.9,18.1
			c0.1,1.1,0.2,2.2,0.3,3.3c1.2,16.6,3,32.1,5.1,46c2.8,18.7,6,34.4,8.3,45.4c1.1,5.6,2,10,2.5,13.1
			C2224.1,1414.9,2218.6,1418.8,2216.2,1420.3z"/>
		<path class="st21" d="M2148.5,1150.2c0,0-11,21-32.5,27.2c-1.3-8.8-1.4-13.8-1.4-13.8l17.1-14L2148.5,1150.2z"/>
		<path class="st17" d="M2106.7,1163.1c0,0,43.1,6.2,46.6-20.3s11.4-43.6-15.9-48.6c-27.4-5.1-34.1,4.4-37.4,12.9
			C2096.6,1115.7,2095.5,1160.8,2106.7,1163.1z"/>
		<path class="st11" d="M2167.9,1090.4c0.4-0.5,1.3-0.8,3.3-1c0,0-1.6-1-3.8-1c-0.5-2.8-2.1-7.7-6.9-8.8c0,0,2.6,1.3,3,4.3
			c-5.7-5.6-17.6-9.5-50.5-6.3c-43.3,4.3-28.5,31.8-22.8,35s19.7-6.2,30.1-5.5c10.5,0.6,12.8,15.7,16.4,17.7s2.1-1.6,6.9-3.9
			c4.8-2.3,5.4,5.7,4.1,10.9c-1.3,5.2,5.5,11.9,5.5,11.9s0,0,6.5-7.3s12.2-37.9,9.1-44.3C2168.5,1091.5,2168.2,1091,2167.9,1090.4z"
			/>
		<path class="st18" d="M2154.2,1266.8c0,0-36.4,27.7-74.9,33.7c-0.7-13.5-1-25.9-0.7-36.1L2154.2,1266.8z"/>
		<path class="st17" d="M1930.9,1231.1c-0.6-0.6-7.1-21-20-22.2c-10.3-1-33.1,4-26.4,7.6c2.2,1.2,14.7,8.9,21.2,20
			c3.2,5.5,12.9,7.2,12.9,7.2L1930.9,1231.1z"/>
		<path class="st9" d="M2158.8,1213.4c20.7,12.4,19.1,43.3-3.1,52.9c-0.5,0.2-0.9,0.4-1.4,0.6c-34.1,13.7-133,19.2-158.8,12.7
			c-10.1-2.5-78.5-33.5-78.5-33.5s4.7-17.2,14.4-19.9c0,0,62.3,8.5,74.4,10c62.7,8.1,117.4-45.4,135.9-33.3
			C2146.6,1206,2152.6,1209.7,2158.8,1213.4z"/>
	</g>
	<g>
		
			<ellipse transform="matrix(0.8408 -0.5414 0.5414 0.8408 -178.5198 594.2621)" class="st22" cx="921" cy="600.6" rx="5.1" ry="5.1"/>
		
			<ellipse transform="matrix(0.8408 -0.5414 0.5414 0.8408 -318.6401 631.1212)" class="st22" cx="913.6" cy="857.3" rx="7.5" ry="7.5"/>
		
			<ellipse transform="matrix(0.8408 -0.5414 0.5414 0.8408 -366.6627 532.8387)" class="st2" cx="722.5" cy="889.8" rx="10.4" ry="10.4"/>
		
			<ellipse transform="matrix(0.8408 -0.5413 0.5413 0.8408 -259.6193 552.5411)" class="st22" cx="809.7" cy="717.7" rx="7.6" ry="7.6"/>
	</g>
	
		<ellipse transform="matrix(0.8408 -0.5414 0.5414 0.8408 -401.4655 462.3681)" class="st22" cx="585.3" cy="913.7" rx="3.5" ry="3.5"/>
	
		<ellipse transform="matrix(0.3465 -0.9381 0.9381 0.3465 -1019.2879 1294.4077)" class="st22" cx="419.4" cy="1378.7" rx="7.2" ry="7.2"/>
	<g>
		
			<ellipse transform="matrix(0.4481 -0.894 0.894 0.4481 -716.5582 1007.2681)" class="st22" cx="457.5" cy="1084" rx="4.6" ry="4.6"/>
		
			<ellipse transform="matrix(0.4481 -0.894 0.894 0.4481 -789.4415 1125.2521)" class="st2" cx="516.6" cy="1202" rx="6.8" ry="6.8"/>
		
			<ellipse transform="matrix(0.4481 -0.894 0.894 0.4481 -579.9666 1073.3607)" class="st22" cx="579.3" cy="1006.4" rx="6.9" ry="6.9"/>
	</g>
	
		<ellipse transform="matrix(0.3465 -0.9381 0.9381 0.3465 -662.3965 1673.1232)" class="st22" cx="869.6" cy="1312" rx="3.5" ry="3.5"/>
	<path class="st7" d="M1043.7,1828.4c-403.3-0.5-720.7-1.3-721.2-2.8l-0.2-0.5c0,0-0.2-0.5-0.2-0.7c-0.3-0.6-32.6-53.6-62-138
		c58.6-10.3,200.9-23.7,347.6,48.7C797.4,1828.5,956.9,1684.1,1043.7,1828.4z"/>
	<path class="st7" d="M404.5,1711.4c0,0,45-168.8,114.2-176.2C587.8,1527.8,431.2,1654.4,404.5,1711.4z"/>
	<path class="st7" d="M423.8,1707.7c0,0,70.9-105.5,117.4-94.4C587.8,1624.2,455.2,1674.8,423.8,1707.7z"/>
	<path class="st7" d="M954.2,1794.4c0,0,51.3-80.2,88.3-72.6S977.5,1769.2,954.2,1794.4z"/>
	<path class="st7" d="M967.1,1796c0,0,61.8-47.5,88.2-31.4C1081.7,1780.7,992,1783,967.1,1796z"/>
	<path class="st7" d="M937.5,1794.7c0,0,17.2-76,47.8-80.4C1016,1709.8,948.5,1768.8,937.5,1794.7z"/>
	<circle class="st2" cx="2169" cy="554.2" r="54"/>
	<path class="st7" d="M1461,1827.1h-70.4c-3.8-3.2,2.6-10.5,9.3-11c2.9-0.2,6.6,0.4,10.7,1.3c1-12.9,6.5-70.7,27.3-68.4
		c23.4,2.6,0,25.5-6.6,39c-4.9,10-10.1,24.4-12.5,31.2c1.9,0.4,3.9,0.8,5.9,1.2c3.1-9.5,14.7-41.6,29.4-39.8
		c17.3,2.2,10.3,15.1-1.9,22.7c-9,5.6-20,13.6-25.2,17.5c4.4,0.7,9.1,1.2,13.8,1.1C1452.8,1821.6,1458.7,1825.2,1461,1827.1z"/>
	<path class="st11" d="M2828.2,1832.9H159.3c-1.7,0-3.2-1.4-3.2-3.2v-1.4c0-1.7,1.4-3.2,3.2-3.2h2668.8c1.7,0,3.2,1.4,3.2,3.2v1.4
		C2831.3,1831.5,2829.9,1832.9,2828.2,1832.9z"/>
	<g>
		<path class="st3" d="M2050.5,457.1c0,0-38.2-18.4-87.7-8.3c0,0,56.5-3.9,90,32c0,0,23.4-35.9,62.2-44.2
			C2115.1,436.6,2086.2,433.2,2050.5,457.1z"/>
		<path class="st3" d="M1942.8,439.7c0,0-29.5-14.4-67.8-6.8c0,0,43.7-2.7,69.5,25.2c0,0,18.3-27.7,48.3-33.9
			C1992.8,424.2,1970.5,421.4,1942.8,439.7z"/>
		<path class="st3" d="M1847.6,426.6c0,0-27.4-11.9-61.9-3.6c0,0,39.7-4.2,64.2,20.2c0,0,15.6-25.9,42.6-32.7
			C1892.5,410.6,1872.1,408.9,1847.6,426.6z"/>
		<path class="st3" d="M1794.3,399.1c0,0-19.2-6.3-42,1.5c0,0,26.5-5.3,44.5,9.6c0,0,8.9-18.4,26.7-24.7
			C1823.6,385.5,1809.7,385.6,1794.3,399.1z"/>
		<path class="st3" d="M1985.2,331.5c0,0-18.9-7.3-42-0.7c0,0,26.7-3.9,44,11.9c0,0,9.8-18,27.9-23.3
			C2015.2,319.3,2001.3,318.8,1985.2,331.5z"/>
		<path class="st3" d="M2078.2,396.6c0,0-26.3-13.3-60.8-6.9c0,0,39.3-1.9,62.1,23.4c0,0,16.8-24.7,43.8-29.9
			C2123.3,383.3,2103.3,380.5,2078.2,396.6z"/>
		<path class="st3" d="M2041.5,355.4c0,0-24.8-11.3-56.4-4.3c0,0,36.3-3.2,58.2,19.5c0,0,14.6-23.4,39.4-29.1
			C2082.7,341.5,2064.1,339.7,2041.5,355.4z"/>
	</g>
	<g>
		<g>
			<path class="st7" d="M1901.7,871.8c-1.4-0.2-2.8-1.1-3.5-2.4c-22.9-40.3-66.2-94.9-142.6-125.9c-2.5-1-3.7-3.9-2.7-6.4
				s3.9-3.7,6.4-2.7c79.1,32.1,123.8,88.5,147.5,130.2c1.3,2.4,0.5,5.4-1.8,6.7C1903.9,871.8,1902.7,871.9,1901.7,871.8z"/>
		</g>
		<g>
			<polygon class="st7" points="1919.5,903.4 1915.8,842.2 1900.8,864.4 1874,862.3 			"/>
		</g>
	</g>
	<g>
		<g>
			<path class="st6" d="M1231.6,1288.1c1.4,0.2,2.8,1.1,3.5,2.4c22.9,40.3,66.2,94.9,142.6,125.9c2.5,1,3.7,3.9,2.7,6.4
				s-3.9,3.7-6.4,2.7c-79.1-32.1-123.8-88.5-147.5-130.2c-1.3-2.4-0.5-5.4,1.8-6.7C1229.4,1288.1,1230.5,1287.9,1231.6,1288.1z"/>
		</g>
		<g>
			<polygon class="st6" points="1213.7,1256.5 1217.4,1317.7 1232.5,1295.5 1259.2,1297.6 			"/>
		</g>
	</g>
</g>
<g>
	<path class="st5" d="M624.4,1609.4v-120h23c17,0,29.1,0.9,36,2.6c6.6,1.6,12.9,4.5,18.3,8.7c6.9,5.3,12.3,12.3,15.7,20.3
		c3.5,8.3,5.3,17.8,5.3,28.5c0,10.7-1.7,20.2-5.3,28.4c-3.4,8-8.8,15-15.7,20.3c-5.3,4.1-11.4,7-17.9,8.7
		c-6.7,1.7-17.1,2.6-31.3,2.6L624.4,1609.4L624.4,1609.4z M638.9,1595.9h9.1c14.8,0,25-0.7,30.7-1.9c5.7-1.3,10.4-3.5,14.2-6.6
		c4.9-4.1,8.7-9.4,11.2-15.9s3.9-13.9,3.9-22.2c0-8.4-1.3-15.8-3.8-22.2c-2.4-6.1-6.3-11.5-11.3-15.8c-3.8-3.2-8.6-5.4-14.4-6.7
		c-5.8-1.3-16-2-30.5-2h-9.1V1595.9z"/>
	<path class="st5" d="M840.3,1609.4v-75h12.5v11.5c3.2-4.8,7.1-8.4,11.6-10.7c4.5-2.4,9.8-3.5,15.7-3.5c8.9,0,15.8,2.4,20.7,7
		c5,4.7,7.4,11.2,7.4,19.6v51.1h-13.1v-44.2c0-7.6-1.6-13.2-4.8-16.9s-8.1-5.5-14.8-5.5c-3.6,0-7.2,0.7-10.4,2.1
		c-3,1.3-5.7,3.4-7.8,5.9c-1.6,2-2.8,4.3-3.4,6.7c-0.7,2.5-1,6.9-1,13.1v38.7L840.3,1609.4z"/>
	<path class="st5" d="M1000.8,1573.8h-59.4v1.1c0,8.1,2.3,14.5,6.9,19.5c4.6,5,10.6,7.4,17.9,7.4c4.8,0,9.6-1.4,13.6-4.1
		c4-2.7,7.6-6.8,10.7-12.2l9.8,6.5c-3.8,6.8-8.6,11.9-14.4,15.3c-5.9,3.5-12.6,5.2-20.3,5.2c-11.4,0-20.7-3.8-27.7-11.3
		c-7-7.5-10.6-17.4-10.6-29.7c0-11.8,3.5-21.4,10.5-28.9s16-11.2,27-11.2c11.1,0,19.9,3.5,26.3,10.7c6.5,7.1,9.7,16.8,9.7,29.1
		L1000.8,1573.8z M987.1,1563.4c-0.4-6.6-2.6-11.7-6.6-15.3c-3.9-3.6-9.4-5.4-16.3-5.4c-6.2,0-11.4,1.9-15.6,5.6s-6.5,8.7-7.2,15
		H987.1z"/>
	<path d="M761.1,1562.4l-0.1,0.1l-5.1-4.6l-10-8.9c0,0,0,0,0-0.1L761.1,1562.4z"/>
	<path d="M761.1,1562.4l-0.1,0.1l-5.1-4.6l-10-8.9c0,0,0,0,0-0.1L761.1,1562.4z"/>
	<path class="st5" d="M808.6,1543.7l33.2-38.8l-9.2-7.8l-1.6,1.9l-32.1,37.5l0,0l0,0l-8.2,9.6l-0.5,0.6l-2.3,2.7l-10.3,12.1
		l-1.3-1.2l-12.5-11.4c4.6-3.5,9.8-5.2,15.8-5.2l0,0c2.1,0,4.1,0.2,6.1,0.7l8.5-10c-4.7-1.8-9.6-2.7-14.7-2.7c-5.4,0-10.7,1-15.7,3
		c-3.5,1.4-6.7,3.3-9.6,5.6l0,0c-0.9,0.7-1.8,1.5-2.7,2.4c-0.3,0.2-0.6,0.5-0.9,0.8c-1.7,1.7-3.3,3.5-4.7,5.5l15.2,13.5l-0.1,0.1
		l16.5,14.8l0,0l1.3,1.2l7.6-8.9l0.2-0.2l13.5-15.7l0,0l0,0c4.3,5.2,6.4,11.3,6.4,18.5c0,7.9-2.6,14.6-7.8,20.1s-11.6,8.3-19.1,8.3
		c-7.5,0-13.9-2.8-19.3-8.3c-5.3-5.5-7.9-12.2-8-20.1c0-3.3,0.5-6.5,1.5-9.6l-10.5-9.4c-3.1,5.8-4.7,12.4-4.6,18.9
		c0,5.3,1,10.6,3,15.5c4.2,9.9,12.1,17.8,22.1,21.9c5,2,10.3,3.1,15.7,3.1c5.3,0,10.6-1.1,15.5-3.1c5-2.1,9.6-5.2,13.4-9
		c3.8-3.7,6.8-8.1,8.9-12.9c2-4.9,3-10.2,3-15.5c0-5.3-1-10.6-3-15.5C815.3,1551.7,812.3,1547.4,808.6,1543.7z"/>
</g>
</svg>
