<?xml version="1.0" encoding="utf-8"?>
<!-- Generator: Adobe Illustrator 21.0.0, SVG Export Plug-In . SVG Version: 6.00 Build 0)  -->
<svg version="1.1" id="Layer_1" xmlns="http://www.w3.org/2000/svg" xmlns:xlink="http://www.w3.org/1999/xlink" x="0px" y="0px"
	 viewBox="0 0 925.6 303" style="enable-background:new 0 0 925.6 303;" xml:space="preserve">
<style type="text/css">
	.st0{fill:#17133C;}
</style>
<title>Done logo</title>
<path class="st0" d="M0,295.1V0h56.6c41.9,0,71.5,2.1,88.6,6.3c16.3,3.9,31.7,11.1,45.1,21.3c16.9,13.1,30.2,30.3,38.5,50
	c8.7,20.3,13.1,43.7,13.1,70.2c0,26.3-4.3,49.6-13,69.8c-8.3,19.7-21.6,36.9-38.6,49.9c-13.1,10-28,17.3-44,21.3
	c-16.5,4.2-42.1,6.4-76.9,6.4L0,295.1L0,295.1z M35.5,262h22.4c36.3,0,61.4-1.6,75.4-4.7c14-3.2,25.6-8.6,34.9-16.2
	c12.1-10.1,21.3-23.1,27.6-39c6.3-15.9,9.5-34.2,9.5-54.7c0-20.7-3.1-38.8-9.4-54.5c-5.8-15.1-15.4-28.4-27.7-38.8
	c-9.3-7.8-21.1-13.3-35.4-16.6c-14.3-3.3-39.3-4.9-74.9-4.9H35.5V262z"/>
<path class="st0" d="M530.9,295.1V110.7h30.8v28.4c7.9-11.8,17.5-20.6,28.6-26.4s24.1-8.7,38.7-8.7c21.8,0,38.8,5.8,51,17.3
	c12.2,11.6,18.3,27.6,18.3,48.2v125.6h-32.2V186.4c0-18.7-3.9-32.5-11.8-41.6s-20-13.6-36.4-13.6c-8.8-0.1-17.6,1.6-25.7,5.1
	c-7.5,3.3-14.1,8.3-19.3,14.6c-3.9,4.9-6.8,10.5-8.4,16.5c-1.7,6.2-2.5,16.9-2.5,32.3v95.3L530.9,295.1z"/>
<path class="st0" d="M925.6,207.6H779.5v2.8c0,19.8,5.6,35.7,16.9,47.9c11.3,12.2,26,18.2,44.1,18.2c11.9,0.1,23.6-3.4,33.5-10
	c9.9-6.7,18.8-16.7,26.4-30.1l24,16.1c-9.3,16.7-21.1,29.2-35.5,37.7c-14.4,8.5-31,12.7-50,12.7c-28.1,0-50.8-9.3-68.1-27.8
	c-17.3-18.5-26-42.9-26-73c0-28.9,8.6-52.6,25.8-71c17.2-18.4,39.3-27.6,66.3-27.5c27.3,0,48.9,8.7,64.8,26.2
	c15.9,17.5,23.9,41.3,23.9,71.6L925.6,207.6z M891.8,182c-1.1-16.3-6.5-28.8-16.2-37.6c-9.7-8.8-23.1-13.2-40-13.2
	c-15.3,0-28.1,4.6-38.3,13.8c-10.2,9.2-16.1,21.5-17.7,37L891.8,182z"/>
<path d="M336.2,179.5l-0.3,0.3l-12.6-11.4l-24.5-21.9c0,0,0.1-0.1,0.1-0.2L336.2,179.5z"/>
<path d="M336.2,179.5l-0.3,0.3l-12.6-11.4l-24.5-21.9c0,0,0.1-0.1,0.1-0.2L336.2,179.5z"/>
<path class="st0" d="M452.9,133.6l81.6-95.4L511.9,19l-3.9,4.6l-78.9,92.3l0,0c0,0,0,0,0,0l-20.1,23.6l-1.2,1.4l-5.7,6.6l-25.4,29.8
	l-3.2-2.9l-30.8-28c11.2-8.5,24.2-12.7,38.9-12.7v0c5.1,0,10.2,0.5,15.1,1.7l21-24.7c-11.5-4.4-23.7-6.7-36.1-6.6
	c-13.3-0.1-26.4,2.4-38.7,7.3c-8.5,3.4-16.4,8-23.6,13.7l0,0c-2.3,1.8-4.5,3.7-6.7,5.8c-0.7,0.6-1.4,1.3-2.1,2
	c-4.2,4.2-8.1,8.7-11.5,13.5l37.3,33.1l-0.3,0.3l40.7,36.5l0,0l3.2,2.9l18.7-22l0.5-0.6l33.1-38.7l0,0c0,0,0,0,0,0
	c10.5,12.7,15.8,27.9,15.8,45.5c0,19.5-6.5,36-19.3,49.5s-28.6,20.3-47,20.3c-18.5,0-34.3-6.8-47.4-20.3c-13-13.5-19.5-30-19.6-49.5
	c-0.1-8,1.2-16,3.7-23.7l-25.8-23c-7.6,14.3-11.5,30.4-11.3,46.6c-0.1,13.1,2.4,26,7.5,38.1c10.3,24.4,29.8,43.8,54.3,53.9
	c12.2,5,25.4,7.6,38.6,7.6c13,0,26-2.6,38-7.7c12.3-5.2,23.5-12.7,33-22.2c9.3-9,16.8-19.8,21.8-31.8c5-12,7.5-25,7.5-38
	c0.1-13.1-2.5-26.1-7.5-38.2C469.4,153.3,462.1,142.6,452.9,133.6z"/>
</svg>
