<?xml version="1.0" encoding="utf-8"?>
<!-- Generator: Adobe Illustrator 21.0.0, SVG Export Plug-In . SVG Version: 6.00 Build 0)  -->
<svg version="1.1" id="Layer_1" xmlns="http://www.w3.org/2000/svg" xmlns:xlink="http://www.w3.org/1999/xlink" x="0px" y="0px"
	 viewBox="0 0 50 50" style="enable-background:new 0 0 50 50;" xml:space="preserve">
<style type="text/css">
	.st0{fill:#E2E2E2;}
</style>
<path class="st0" d="M14,0c-1.9,0-3.8,0.3-5.5,1.1C8.2,1.2,7.9,1.5,7.9,1.9c0,0.4,0.1,0.7,0.4,0.9C8.6,3,9,3.1,9.3,2.9
	C10.8,2.3,12.3,2,14,2c6.7,0,12,5.3,12,12s-5.3,12-12,12S2,20.7,2,14c0-3,1.2-5.8,3-7.9v2.6c0,0.4,0.2,0.7,0.5,0.9
	c0.3,0.2,0.7,0.2,1,0C6.8,9.4,7,9.1,7,8.7V3H1.3C0.9,3,0.6,3.2,0.4,3.5c-0.2,0.3-0.2,0.7,0,1C0.6,4.8,0.9,5,1.3,5h2
	C1.3,7.4,0,10.6,0,14c0,3.8,1.5,7.3,4,9.8V46c0,1.1,0.9,2,2,2h40c1.1,0,2-0.9,2-2V15H28c0-0.3,0-0.7,0-1c0-0.3,0-0.7-0.1-1H48V6
	c0-1.2-0.8-2-2-2h-5V2c0-1.1-0.9-2-2-2h-2c-1.1,0-2,0.9-2,2v2H23.8C21.3,1.5,17.8,0,14,0z M37,2h2v6h-2V2z M14,5c-0.6,0-1,0.5-1,1
	v7.8c0,0.2,0,0.4,0.1,0.6c0.1,0.2,0.2,0.3,0.4,0.4l3.9,2.9c0.4,0.3,1.1,0.2,1.4-0.2c0.3-0.4,0.2-1.1-0.2-1.4L15,13.5V6
	c0-0.3-0.1-0.5-0.3-0.7C14.5,5.1,14.3,5,14,5z M27,21h5v5h-5V21z M34,21h5v5h-5V21z M25,22.6L25,22.6l-0.1,0.2
	C24.9,22.8,25,22.7,25,22.6z M13,28h5v5h-5V28z M20,28h5v5h-5V28z M27,28h5v5h-5V28z M34,28h5v5h-5V28z M13,35h5v5h-5V35z M20,35h5
	v5h-5V35z M27,35h5v5h-5V35z M34,35h5v5h-5V35z"/>
</svg>
